<svg width="25" height="24" viewBox="0 0 25 24" fill="none" xmlns="http://www.w3.org/2000/svg">
<path d="M24.2144 12.0735C24.2144 5.4045 18.7934 -0.00149536 12.1072 -0.00149536C5.41804 4.63868e-06 -0.00292969 5.40451 -0.00292969 12.075C-0.00292969 18.1005 4.42526 23.0955 10.2125 24.0015V15.564H7.14028V12.075H10.2155V9.4125C10.2155 6.387 12.024 4.716 14.789 4.716C16.1147 4.716 17.4995 4.9515 17.4995 4.9515V7.9215H15.9724C14.4696 7.9215 14.0005 8.853 14.0005 9.8085V12.0735H17.3572L16.8215 15.5625H13.999V24C19.7862 23.094 24.2144 18.099 24.2144 12.0735Z" fill="#0064FB"/>
</svg>
