<svg width="25" height="25" viewBox="0 0 25 25" fill="none" xmlns="http://www.w3.org/2000/svg">
<path d="M24.1833 10.0665H23.2167V10.0167H12.4167V14.8167H19.1985C18.2092 17.6109 15.5505 19.6167 12.4167 19.6167C8.44055 19.6167 5.21675 16.3929 5.21675 12.4167C5.21675 8.44046 8.44055 5.21666 12.4167 5.21666C14.2521 5.21666 15.9219 5.90906 17.1933 7.04006L20.5875 3.64586C18.4443 1.64846 15.5775 0.416656 12.4167 0.416656C5.78975 0.416656 0.416748 5.78966 0.416748 12.4167C0.416748 19.0437 5.78975 24.4167 12.4167 24.4167C19.0437 24.4167 24.4167 19.0437 24.4167 12.4167C24.4167 11.6121 24.3339 10.8267 24.1833 10.0665Z" fill="#FFC107"/>
<path d="M1.80029 6.83126L5.74289 9.72266C6.80969 7.08146 9.39329 5.21666 12.4167 5.21666C14.2521 5.21666 15.9219 5.90906 17.1933 7.04006L20.5875 3.64586C18.4443 1.64846 15.5775 0.416656 12.4167 0.416656C7.80749 0.416656 3.81029 3.01886 1.80029 6.83126Z" fill="#FF3D00"/>
<path d="M12.4169 24.4167C15.5165 24.4167 18.3329 23.2305 20.4623 21.3015L16.7483 18.1587C15.503 19.1057 13.9814 19.6179 12.4169 19.6167C9.29569 19.6167 6.64549 17.6265 5.64709 14.8491L1.73389 17.8641C3.71989 21.7503 7.75309 24.4167 12.4169 24.4167Z" fill="#4CAF50"/>
<path d="M24.1833 10.0665H23.2167V10.0167H12.4167V14.8167H19.1985C18.7253 16.1465 17.8728 17.3086 16.7463 18.1593L16.7481 18.1581L20.4621 21.3009C20.1993 21.5397 24.4167 18.4167 24.4167 12.4167C24.4167 11.6121 24.3339 10.8267 24.1833 10.0665Z" fill="#1976D2"/>
</svg>
