<svg width="64" height="64" viewBox="0 0 64 64" fill="none" xmlns="http://www.w3.org/2000/svg">
<circle cx="32.2198" cy="28.4539" r="25.2332" fill="#D9D9D9"/>
<path d="M3.69337 28.7595C3.69337 44.6469 16.5655 57.519 32.4529 57.519C48.3402 57.519 61.2124 44.6469 61.2124 28.7595C61.2124 12.8803 48.3402 0 32.4529 0C16.5655 0 3.69337 12.8803 3.69337 28.7595Z" fill="#D5EBFE"/>
<path d="M3.8959 28.7595C3.8959 44.535 16.6774 57.3165 32.4529 57.3165C48.2284 57.3165 61.0098 44.535 61.0098 28.7595C61.0098 12.9921 48.2283 0.202532 32.4529 0.202532C16.6774 0.202532 3.8959 12.9921 3.8959 28.7595Z" stroke="#0085FF" stroke-width="0.405064"/>
<path d="M44.5751 29.9756C44.5751 29.9756 45.5996 30.9252 46.8823 30.3088C48.1568 29.6924 52.8296 26.3939 52.688 25.586C52.5464 24.778 50.364 24.5864 50.364 24.5864C50.364 24.5864 43.6005 29.9339 44.5751 29.9756Z" fill="#255096"/>
<path d="M47.2988 29.5842C47.2988 29.5842 51.9217 25.8943 51.9217 25.5861C51.9217 25.2696 50.3058 25.078 50.3058 25.078C50.3058 25.078 49.6977 25.5195 48.7565 26.469C47.8153 27.4103 44.9333 29.7092 45.8078 29.8508C46.1993 29.9091 47.2988 29.5842 47.2988 29.5842Z" fill="#FFC34E"/>
<path d="M39.8438 36.2977C39.8438 36.2977 43.8253 34.965 44.2001 33.9738C44.5833 32.9743 44.1585 30.2256 44.1585 30.2256C44.1585 30.2256 47.282 28.1182 46.574 28.1349C46.1659 28.1432 43.4421 29.6092 42.6342 30.3672C41.8345 31.1251 40.152 33.9738 40.152 33.9738L39.8438 36.2977Z" fill="#F09959"/>
<path d="M37.8281 41.0372C37.8281 41.9784 42.6592 36.9558 42.6592 36.9558C42.6592 36.9558 41.0017 33.3991 40.3853 33.1159C39.7689 32.8327 37.0202 36.9558 37.0202 36.9558C37.0202 36.9558 37.8281 40.0876 37.8281 41.0372Z" fill="#A1A654"/>
<path d="M29.1705 14.5823C29.1705 14.5823 26.355 23.5602 24.4724 27.2898C22.5981 31.0194 21.6569 37.965 22.0284 50.1663C22.4082 62.3675 19.7743 62.0251 23.7211 63.5512C27.6678 65.0773 41.762 62.5313 43.6445 58.6379C45.5271 54.7371 42.3895 38.8732 37.7245 33.0517C33.1255 27.3047 31.053 25.2575 31.053 23.9026C31.053 22.5477 32.8695 16.7858 32.8695 16.7858L29.1705 14.5823Z" fill="#F09959"/>
<path d="M43.6445 58.6579C45.5271 54.7715 42.3895 38.9666 37.7245 33.1668C35.5777 30.4968 33.9842 28.6352 32.8943 27.2631C30.665 26.0616 28.2045 24.9491 25.8348 24.3038C25.3641 25.4979 24.8935 26.5956 24.4724 27.4263C22.5981 31.142 21.6569 38.0618 22.0284 50.2177C22.4082 62.3736 19.7743 62.0325 23.7211 63.5529C27.6678 65.0733 41.762 62.5368 43.6445 58.6579Z" fill="#C1C765"/>
<path d="M22.5521 38.7715C22.0023 42.9113 36.9371 34.3986 36.1041 32.8743C35.2628 31.35 34.6631 28.5263 34.6048 27.7683C34.5382 27.0103 24.4095 23.0039 24.3596 23.7868C24.2346 25.8692 23.1018 34.6235 22.5521 38.7715Z" fill="#C1C765"/>
<path d="M31.3229 25.4695C31.3174 25.4139 31.3146 25.3584 31.3146 25.3029C31.3146 23.7869 33.1471 17.3399 33.1471 17.3399L29.4155 14.8744C29.4155 14.8744 28.7575 17.2066 27.8662 20.0886C29.024 23.5537 30.1068 24.7282 31.3229 25.4695Z" fill="#E38540"/>
<path d="M36.1124 12.1756C33.2471 11.5426 30.3568 13.9414 29.4988 17.4981C28.466 21.7711 31.6811 24.6948 33.7718 25.2112C36.6289 25.9026 39.0944 23.3621 39.8773 19.7887C40.6686 16.2154 38.9861 12.8086 36.1124 12.1756Z" fill="#F09959"/>
<path d="M43.1176 43.053C45.708 38.58 45.9996 34.407 47.8321 33.1076C50.4142 31.2668 52.5299 27.1687 51.597 27.0021C50.6641 26.8438 46.8825 30.3089 46.8825 30.3089C46.8825 30.3089 47.8654 28.9595 47.6322 28.8512C47.3906 28.7346 45.4915 30.1173 45.1916 31.7499C44.9001 33.3908 41.2351 40.8956 38.1699 43.3029C35.0963 45.7101 40.5271 47.5259 43.1176 43.053Z" fill="#F09959"/>
<path d="M26.3501 31.7915C21.7606 32.9326 23.8596 46.7845 27.7245 54.9974C31.5977 63.2186 38.861 56.1219 41.5764 54.1061C42.6092 53.3398 43.2923 52.5652 43.7337 51.8988C42.8675 47.0011 41.3682 41.7369 39.5274 38.0386C35.196 43.1196 33.1387 30.1006 26.3501 31.7915Z" fill="#A1A654"/>
<path d="M27.7245 30.7918C21.9605 31.3749 25.1174 45.7765 29.3321 51.5905C33.5551 57.4045 39.5607 51.7737 41.4515 48.4253C43.3506 45.0768 47.1905 39.3795 47.1905 35.6812C47.1905 34.9815 45.7661 34.8399 44.0586 34.9649C42.451 35.0815 35.1961 45.0768 35.1961 45.0768C35.1961 45.0768 32.7722 30.292 27.7245 30.7918Z" fill="#C1C765"/>
<path d="M36.3623 9.22699C33.522 9.15203 33.7552 10.1016 31.8977 10.1016C30.0403 10.1016 28.5243 11.9008 28.466 15.3325C28.4077 18.7559 26.3753 19.922 27.1916 20.0386C28.0079 20.1553 29.299 18.6976 29.299 18.6976C29.299 18.6976 28.7575 20.0386 30.0236 22.046C31.2897 24.0534 33.0639 26.4273 34.6881 26.2608C36.3124 26.0858 38.528 23.0206 38.528 23.0206C38.528 23.0206 37.77 22.7707 36.8954 22.829C36.0208 22.8873 34.6298 24.2783 33.3471 24.1617C32.0643 24.0451 32.8473 21.388 33.1388 20.1719C33.4221 18.9475 34.3383 18.1812 35.3212 17.7147C36.304 17.2483 34.9796 15.2159 36.0791 15.3325C37.187 15.4491 39.336 18.8725 41.1934 18.6976C43.0592 18.5227 45.1666 13.8249 41.6432 12.3422C40.8186 11.9924 38.9278 9.29363 36.3623 9.22699Z" fill="#0F2D5C"/>
<path d="M32.5725 17.8562C31.9311 17.9145 31.473 18.6808 31.5563 19.5638C31.6396 20.4467 32.231 21.1214 32.8723 21.0547C33.5137 20.9964 33.9718 20.2301 33.8885 19.3472C33.8052 18.4643 33.2138 17.7896 32.5725 17.8562Z" fill="#F09959"/>
</svg>
