<svg width="64" height="64" viewBox="0 0 64 64" fill="none" xmlns="http://www.w3.org/2000/svg">
<path d="M51.7535 47.0004C51.7535 54.6425 45.5629 60.8331 37.9208 60.8331C30.283 60.8331 24.0924 54.6425 24.0924 47.0004C24.0924 39.3626 30.283 33.172 37.9208 33.172C45.5629 33.172 51.7535 39.3626 51.7535 47.0004Z" fill="#D5EBFE"/>
<path d="M51.536 47.0004C51.536 54.5224 45.4428 60.6156 37.9208 60.6156C30.4032 60.6156 24.3099 54.5224 24.3099 47.0004C24.3099 39.4827 30.4031 33.3895 37.9208 33.3895C45.4428 33.3895 51.536 39.4828 51.536 47.0004Z" stroke="#0085FF" stroke-width="0.435055"/>
<path d="M35.6872 35.8591C37.7867 33.9885 39.3333 35.1031 40.4824 36.3516C41.3982 37.3452 41.5235 37.5655 42.2795 38.598C42.3918 38.7492 42.4782 38.922 42.4826 39.1121C42.5042 40.2482 43.0874 45.0651 42.4394 46.7283C41.6834 48.6636 32.3737 49.5492 32.3737 49.5492L35.6872 35.8591Z" fill="#303C60"/>
<path d="M41.653 47.8385C41.5968 47.8385 41.5493 47.7953 41.545 47.7391C41.545 47.6786 41.5882 47.6311 41.6443 47.6268C41.9208 47.6138 42.1411 47.4929 42.3269 47.251C43.368 45.9031 42.7805 41.3887 42.2707 38.9349C42.2578 38.8788 42.2966 38.8226 42.3528 38.8096C42.409 38.7967 42.4651 38.8356 42.4781 38.8917C42.5904 39.4274 42.9619 41.3325 43.0786 43.3154C43.1995 45.3545 43.0008 46.7239 42.4954 47.3806C42.2707 47.6657 41.9899 47.8212 41.6573 47.8385C41.6544 47.8385 41.653 47.8385 41.653 47.8385Z" fill="#303C60"/>
<path d="M36.1495 56.971C34.3091 59.8568 28.7233 60.5609 26.8571 57.2993C24.0016 52.3054 28.3605 48.521 29.7774 47.778C34.901 45.0866 32.4386 37.5352 36.4778 35.3018C36.4778 35.3018 37.9855 54.0809 36.1495 56.971Z" fill="#303C60"/>
<path d="M25.7295 52.4782C25.7238 52.4782 25.7195 52.4782 25.7166 52.4782C25.6561 52.4695 25.6172 52.4177 25.6259 52.3572C25.6302 52.3313 25.7166 51.6963 26.1183 50.8495C26.4899 50.0763 27.2113 48.9703 28.5419 48.1279C30.9092 46.6202 32.4817 45.199 34.3393 38.1962C34.3523 38.14 34.4128 38.1055 34.4689 38.1228C34.5251 38.1357 34.5553 38.1962 34.5424 38.2524C33.6438 41.6349 32.7496 43.9245 31.7387 45.4538C30.7926 46.8751 29.8249 47.5577 28.6542 48.305C26.1961 49.8689 25.8375 52.3615 25.8332 52.3875C25.8289 52.4393 25.7814 52.4782 25.7295 52.4782Z" fill="#303C60"/>
<path d="M25.816 50.5213C25.7987 50.5213 25.7814 50.5169 25.7642 50.5083C25.7123 50.4737 25.6994 50.4089 25.7296 50.3614C26.3171 49.4326 27.0602 48.6723 27.9501 48.0977C31.2722 45.9464 31.8251 44.7108 34.5727 37.626C34.5943 37.5742 34.6548 37.5482 34.7066 37.5655C34.7628 37.5871 34.7887 37.6476 34.7671 37.7038C33.3933 41.2462 32.5725 43.3241 31.6739 44.7972C30.7063 46.3784 29.6176 47.2683 28.0624 48.2748C27.2027 48.8321 26.477 49.5709 25.9067 50.4737C25.8851 50.504 25.8549 50.5213 25.816 50.5213Z" fill="#303C60"/>
<path d="M37.9939 41.7776C37.6742 42.5293 37.4064 44.6115 37.4582 45.4669C37.5144 46.3222 36.6029 46.9659 35.9635 46.7499C35.3198 46.5382 35.16 45.523 35.16 45.523C35.16 45.523 34.944 42.9008 36.335 40.015C36.335 40.015 38.3136 41.0302 37.9939 41.7776Z" fill="#F09959"/>
<path d="M30.1274 57.9775L31.5314 60.5782C31.5314 60.5782 30.283 61.062 29.5831 60.9324C28.8833 60.7985 29.0777 60.8633 28.9913 60.0771L30.1274 57.9775Z" fill="#6791C9"/>
<path d="M36.413 46.1882C36.413 46.1882 32.4213 49.2382 31.9807 51.5537C31.5357 53.8692 31.8813 58.3966 31.8813 58.3966C31.8813 58.3966 37.3936 60.859 36.8061 61.0577C36.2143 61.2521 29.7126 61.0577 29.3195 60.5652C28.9264 60.0728 28.7277 56.971 28.8789 53.0786C29.0258 49.1906 29.9114 44.8576 30.9438 44.5596C31.9807 44.2658 34.9355 45.2508 35.3287 43.972L36.413 46.1882Z" fill="#F09959"/>
<path d="M36.7066 44.3652C37.7391 45.942 40.4477 45.7433 41.3852 47.022C42.3183 48.3051 44.2882 55.3467 44.2882 55.3467L46.3575 48.2057C46.3575 48.2057 48.0337 47.9249 47.4893 49.0913C46.5217 51.1693 46.1588 57.8739 45.109 58.8243C43.9426 59.8827 42.7805 59.0187 42.1239 57.1655C41.4888 55.3726 39.9077 51.5062 38.7759 50.0288C37.6397 48.5513 36.4128 46.1883 36.4128 46.1883L36.7066 44.3652Z" fill="#F09959"/>
<path d="M32.2268 44.5595C34.2918 46.9744 38.331 46.875 39.2166 46.5812C40.1022 46.2832 40.1022 46.2832 40.1022 46.2832C40.1022 46.2832 40.7934 46.0369 41.3852 46.7281C41.9771 47.4193 43.4027 51.7523 43.6489 52.7373C43.8952 53.7222 44.2883 55.3466 44.2883 55.3466C44.2883 55.3466 43.2342 56.6123 43.2342 57.8954C43.2342 59.1741 43.6835 59.1828 43.6835 59.1828C43.6835 59.1828 42.3702 58.889 42.0721 58.1027C41.7784 57.3165 39.1172 50.1755 39.1172 50.1755L31.7818 50.3224L31.8812 58.3965C31.8812 58.3965 31.2418 57.809 30.3562 58.3965C29.4663 58.9883 29.1725 60.3664 29.3194 60.5652C29.4663 60.7639 29.0257 60.7639 29.0257 60.6127C29.0257 60.4658 28.1876 56.8715 28.7794 50.9618C29.3713 45.052 30.5031 44.4126 31.1425 44.3651C31.7818 44.3132 32.2268 44.5595 32.2268 44.5595Z" fill="#75A1DE"/>
<path d="M43.3814 59.0836C43.3944 59.0879 43.403 59.0879 43.403 59.0879C43.403 59.0879 43.3958 59.0865 43.3814 59.0836Z" fill="#6791C9"/>
<path d="M43.0746 56.5087C42.8111 57.4635 42.6469 58.3145 43.04 58.6774C43.0875 58.7163 43.3338 58.8329 43.377 58.8718C43.4504 59.0878 43.5411 59.144 43.5843 59.1569C43.4331 59.1224 42.3445 58.8243 42.0723 58.1028C41.8736 57.5715 40.6035 54.163 39.7957 51.9943L40.3832 48.629C40.8757 53.5884 42.5173 57.1654 42.5173 57.1654C42.5173 57.1654 43.2387 55.6577 43.6664 55.5238C44.0941 55.3942 43.3381 55.5583 43.0746 56.5087Z" fill="#6791C9"/>
<path d="M31.782 50.3225L31.8814 58.3967C31.8814 58.3967 31.8295 58.3535 31.7431 58.3016C31.4364 58.0511 30.9958 57.429 30.6977 55.0314C30.3348 52.111 30.4342 47.8428 31.3198 46.5944L32.1363 50.3139L31.782 50.3225Z" fill="#6791C9"/>
<path d="M36.7068 47.0738L39.7092 47.2207C39.7092 47.2207 41.5064 49.2727 41.07 51.3204C40.5127 53.947 40.9404 57.6579 41.0398 58.5953C41.1392 59.5328 43.4115 60.9066 43.4115 60.9066C43.4115 60.9066 41.826 61.0578 39.6617 61.2046C37.4931 61.3515 35.7694 60.9109 35.7694 60.9109C35.7694 60.9109 33.631 58.9021 32.5207 56.2323C30.5335 51.4543 31.2895 50.6335 29.7775 46.5641L36.7068 47.0738Z" fill="#75A1DE"/>
<path opacity="0.5" d="M32.4385 52.7978C32.1749 51.8474 33.553 53.0959 35.821 53.3249C38.0847 53.5538 40.6119 53.1953 39.3635 53.5884C38.115 53.9815 34.7022 53.3897 35.3286 54.6382C36.0586 56.107 36.927 57.5283 38.1841 58.3793C39.0049 58.9366 40.9748 59.4636 39.0697 59.1699C37.1646 58.8718 35.1298 56.6427 34.2442 55.1954C33.3586 53.7526 32.4946 53.0138 32.4385 52.7978Z" fill="#6791C9"/>
<path d="M38.6896 45.6699C38.3959 45.6958 38.0502 45.6828 37.7435 45.5662C37.035 45.294 35.5446 43.9462 36.0414 40.6759C36.1048 40.5204 36.1725 40.3649 36.2445 40.2094L36.7154 40.231C37.2726 40.5679 38.2231 41.2418 37.9941 41.7775C37.7133 42.4342 37.4714 44.1103 37.4541 45.0953C37.8213 45.3372 38.249 45.5143 38.6896 45.6699Z" fill="#E38540"/>
<path d="M36.5513 46.5512C36.3785 46.5512 36.2014 46.5296 36.0242 46.4864C35.6138 46.387 34.6332 46.0069 34.4042 44.6374C34.3999 44.6029 34.4215 44.5726 34.4518 44.5683C34.4863 44.5597 34.5166 44.5813 34.5209 44.6158C34.7369 45.9162 35.6657 46.279 36.0545 46.3741C36.6593 46.521 37.2986 46.3827 37.5449 46.0544C37.7393 45.7952 37.6227 45.2336 37.6227 45.2293C37.614 45.1947 37.6356 45.1645 37.6659 45.1602C37.7004 45.1515 37.7307 45.1731 37.7393 45.2034C37.7436 45.2293 37.8689 45.8211 37.6399 46.1278C37.4369 46.4 37.0178 46.5512 36.5513 46.5512Z" fill="#F5CE5C"/>
<path d="M41.1866 41.298C40.8496 43.0605 40.0807 44.4861 38.776 44.2183C37.4671 43.9505 36.0976 42.0842 36.4562 40.326C36.8191 38.5677 38.1712 37.3624 39.4759 37.6303C40.7805 37.8981 41.6316 38.9479 41.1866 41.298Z" fill="#F09959"/>
<path d="M45.6016 54.7548C45.6016 54.7548 43.5496 58.267 43.4848 58.267C43.42 58.267 43.191 57.8393 43.3033 57.1654C43.42 56.4914 45.8305 50.0071 45.8305 50.0071L45.6016 54.7548Z" fill="#F09959"/>
<path d="M45.9298 49.7264C46.1285 49.0697 45.8218 48.236 45.8218 48.236L46.6945 48.344L45.9298 49.7264Z" fill="#F09959"/>
<path d="M46.8932 48.6032H44.4481C44.3012 48.6032 44.1932 48.4606 44.2364 48.318L45.7787 43.1513C45.8089 43.0563 45.8953 42.9915 45.9903 42.9915H48.4355C48.5824 42.9915 48.6904 43.134 48.6472 43.2766L47.1049 48.4476C47.0747 48.5384 46.9883 48.6032 46.8932 48.6032Z" fill="#4381DB"/>
<path d="M47.2 48.6032H44.7549C44.608 48.6032 44.5 48.4606 44.5432 48.318L46.0854 43.1513C46.1157 43.0563 46.1978 42.9915 46.2971 42.9915H48.7422C48.8891 42.9915 48.9971 43.134 48.9539 43.2766L47.4117 48.4476C47.3814 48.5384 47.295 48.6032 47.2 48.6032Z" fill="#2E5B9A"/>
<path d="M45.9818 43.1814C46.025 43.1944 45.8522 43.9634 45.5886 44.9008C45.3294 45.8383 45.0832 46.5899 45.04 46.577C44.9925 46.564 45.1696 45.7951 45.4288 44.8576C45.6923 43.9202 45.9386 43.1685 45.9818 43.1814Z" fill="#9CBEED"/>
<path d="M46.8803 49.2943L46.4137 49.3116C46.4137 49.3116 45.9212 49.1777 46.5001 48.5642C47.2 47.8212 47.9862 46.6591 46.9364 47.0781C46.0508 47.4281 46.3748 46.6073 46.3748 46.6073C46.3748 46.6073 47.066 45.8426 47.2345 45.9204C47.403 45.9938 47.7184 46.145 47.7184 46.145C47.7184 46.145 47.5499 44.4645 47.6795 44.3911C47.8134 44.3133 48.0899 46.2357 48.2022 46.3869C48.2929 46.5036 48.3102 47.5058 48.3145 47.9292C48.3145 48.0458 48.267 48.1581 48.1806 48.2359C47.8998 48.4908 47.1611 49.29 47.092 50.141L46.8803 49.2943Z" fill="#F09959"/>
<path d="M46.8243 50.815C46.7465 50.815 46.6601 50.8064 46.5694 50.7762C46.3447 50.707 45.943 50.4781 45.8393 49.7393C45.835 49.7048 45.8566 49.6745 45.8911 49.6702C45.9214 49.6659 45.9516 49.6875 45.9559 49.7221C46.0467 50.3398 46.3404 50.5688 46.5737 50.6509C46.7681 50.7243 46.9366 50.6941 46.9798 50.6725C46.9841 50.6509 46.9971 50.6336 47.0143 50.625C47.0489 50.6163 47.0835 50.6293 47.0921 50.6595C47.1051 50.6898 47.1007 50.7243 47.0748 50.7459C47.0359 50.7891 46.9409 50.815 46.8243 50.815Z" fill="#F5CE5C"/>
<path d="M46.7333 50.6033C46.6598 50.6033 46.5864 50.599 46.513 50.5904C46.0896 50.5299 45.8045 50.3139 45.731 49.9985C45.7267 49.964 45.744 49.9337 45.7785 49.9251C45.8088 49.9208 45.8433 49.938 45.8477 49.9726C45.9125 50.2577 46.1717 50.383 46.3747 50.4392C46.6771 50.5213 46.9752 50.4781 47.0141 50.4392C47.027 50.4089 47.0659 50.4003 47.0918 50.4176C47.1221 50.4305 47.1307 50.4694 47.1134 50.4997C47.0746 50.5731 46.9104 50.6033 46.7333 50.6033Z" fill="#F5CE5C"/>
<path fill-rule="evenodd" clip-rule="evenodd" d="M39.6877 42.2268C39.6589 42.2268 39.6315 42.224 39.6056 42.2182C39.1866 42.1534 38.9317 41.6177 39.0267 40.9913C39.1218 40.3692 39.5279 39.9286 39.9469 39.9934C40.366 40.0582 40.6208 40.5982 40.5258 41.2203C40.4351 41.8035 40.0765 42.2268 39.6877 42.2268ZM39.8648 40.1964C39.5883 40.1964 39.3075 40.5593 39.2341 41.0259C39.1607 41.514 39.3464 41.9676 39.6359 42.0108C39.9296 42.0584 40.2407 41.6782 40.3141 41.19C40.3919 40.6975 40.2061 40.2483 39.9124 40.2007C39.898 40.1979 39.8821 40.1964 39.8648 40.1964Z" fill="white"/>
<path fill-rule="evenodd" clip-rule="evenodd" d="M41.0526 42.2268C41.0382 42.2268 41.0253 42.2253 41.0138 42.2225C40.7329 42.1792 40.5861 41.7256 40.6725 41.1684C40.7589 40.6111 41.031 40.2223 41.3118 40.2655C41.5926 40.3087 41.7395 40.7623 41.6531 41.3196C41.6142 41.5701 41.5322 41.8034 41.4242 41.9676C41.3118 42.1361 41.1822 42.2268 41.0526 42.2268ZM41.2686 40.421C41.1131 40.421 40.9014 40.7277 40.828 41.1943C40.7545 41.6781 40.8798 42.041 41.0354 42.0669C41.1131 42.0756 41.2038 42.0108 41.2902 41.8812C41.3853 41.7343 41.4587 41.5226 41.4933 41.2936C41.571 40.8098 41.4457 40.4469 41.2859 40.421C41.2801 40.421 41.2744 40.421 41.2686 40.421Z" fill="white"/>
<path d="M39.2339 40.5938C39.2253 40.5938 39.2152 40.5923 39.2037 40.5894L35.9853 39.6693C35.9291 39.6563 35.8989 39.5958 35.9162 39.5397C35.9291 39.4835 35.9896 39.4533 36.0458 39.4705L39.2642 40.3864C39.316 40.4037 39.3506 40.4598 39.3333 40.516C39.3203 40.5635 39.2771 40.5938 39.2339 40.5938Z" fill="white"/>
<path d="M41.5323 38.585C36.5513 41.5183 36.2791 39.5483 36.2791 39.5483L36.5729 36.7446L39.5278 36.9088L41.5323 38.585Z" fill="#303C60"/>
<path d="M36.6635 40.2007C36.7801 40.6932 36.6203 41.1554 36.3093 41.2288C35.9982 41.3023 35.6526 40.9567 35.536 40.4599C35.4237 39.9674 35.5792 39.5052 35.8902 39.4317C36.2013 39.3583 36.5469 39.7039 36.6635 40.2007Z" fill="#F09959"/>
<path d="M36.322 40.8487C36.322 40.9567 36.2356 41.0474 36.1276 41.0474C36.0196 41.0474 35.9289 40.9567 35.9289 40.8487C35.9289 40.7407 36.0196 40.6543 36.1276 40.6543C36.2356 40.6543 36.322 40.7407 36.322 40.8487Z" fill="#F5CE5C"/>
<path d="M37.7565 59.55C37.7565 59.55 39.1 58.9625 39.4975 59.2217C39.8906 59.4852 41.0268 60.6905 41.0268 60.6905L37.7565 59.55Z" fill="#F09959"/>
<path d="M40.9532 60.7986C40.9273 60.8288 40.8884 60.8418 40.8668 60.8245L38.0977 58.7638C37.9508 58.6515 37.8773 58.483 37.9508 58.3923C38.0242 58.3059 38.2013 58.3361 38.3439 58.4571L40.9618 60.7078C40.9834 60.7251 40.9791 60.764 40.9532 60.7986Z" fill="#2E5B9A"/>
<path d="M33.687 59.2994C33.687 59.2994 35.9161 60.185 36.1796 60.185C36.4432 60.185 37.9077 59.2001 38.4001 59.334C38.8926 59.4636 41.3032 60.6775 41.2341 60.7769C41.1693 60.8762 40.4824 61.1052 38.4433 61.0404C36.4086 60.9756 33.0952 60.6775 33.0952 60.6775L33.687 59.2994Z" fill="#F09959"/>
<path d="M62.9999 16.6124C62.9999 24.1292 56.9087 30.2248 49.3875 30.2248C41.8707 30.2248 35.7751 24.1292 35.7751 16.6124C35.7751 9.09555 41.8707 3 49.3875 3C56.9087 3 62.9999 9.09555 62.9999 16.6124Z" fill="#D5EBFE"/>
<path d="M62.7824 16.6124C62.7824 24.0091 56.7886 30.0072 49.3876 30.0072C41.9909 30.0072 35.9927 24.0091 35.9927 16.6124C35.9927 9.21569 41.9909 3.21753 49.3876 3.21753C56.7886 3.21753 62.7824 9.21564 62.7824 16.6124Z" stroke="#0085FF" stroke-width="0.435055"/>
<path d="M50.8339 24.2687C52.6855 23.2601 56.2857 19.2197 61.6032 23.0322C65.5063 25.8299 57.4847 27.6128 51.5302 28.0687C50.7309 28.0874 50.2125 27.2131 45.6444 27.8158C39.1559 28.6682 34.0819 25.4896 36.9421 22.7855C40.5204 19.3977 48.9823 25.2741 48.9823 25.2741C48.9823 25.2741 48.9823 25.2741 50.8339 24.2687Z" fill="#232E4F"/>
<path d="M59.9201 22.8916C57.6969 22.4326 49.2257 25.5737 49.2257 25.5737C49.2257 25.5737 41.8473 23.3506 40.0831 23.1382C38.3189 22.9259 37.5071 23.5972 37.5071 23.5972C37.5071 23.5972 38.3377 22.6574 39.3056 22.5731C40.2736 22.4888 41.6693 22.2546 41.6693 22.2546C41.6693 22.2546 55.7891 21.5864 57.6594 22.0079C59.5329 22.4326 59.9201 22.8916 59.9201 22.8916Z" fill="#1B243D"/>
<path d="M49.563 11.4541C49.563 11.4541 54.1155 12.8842 55.121 14.4735C56.1295 16.0597 52.7385 24.4248 52.7385 24.4248C52.7385 24.4248 49.5099 25.4333 46.6216 24.4248C43.7365 23.4193 42.244 15.6881 42.3064 14.7358C42.372 13.7834 47.5865 11.5072 47.9206 11.4541H49.563Z" fill="#FFD24F"/>
<path d="M54.2839 13.6179C56.8536 15.0761 59.7169 20.1157 58.6834 21.6676C57.653 23.2194 52.476 24.2717 52.476 24.2717C52.476 24.2717 49.6408 23.9876 46.6214 24.0937C43.6051 24.1999 40.1236 22.5544 39.1993 21.8081C37.8816 20.7465 39.1056 15.9254 44.0891 13.2557C44.0891 13.2557 51.7141 12.1628 54.2839 13.6179Z" fill="#FFD24F"/>
<path d="M48.8383 14.4734C48.1514 14.4734 47.5862 13.9083 47.5862 13.2182V9.0029C47.5862 8.31284 48.1514 7.74768 48.8383 7.74768C49.5284 7.74768 50.0936 8.31284 50.0936 9.0029V13.2182C50.0936 13.9083 49.5284 14.4734 48.8383 14.4734Z" fill="#F09959"/>
<path d="M50.0936 9.0029V11.9286C49.0413 12.7436 48.3263 13.0683 47.5862 12.4501V9.0029C47.5862 8.31284 48.1514 7.74768 48.8383 7.74768C49.5284 7.74768 50.0936 8.31284 50.0936 9.0029Z" fill="#E38540"/>
<path d="M51.5892 9.17155C51.3832 9.59308 51.0491 9.82726 50.843 9.693C50.6369 9.56185 50.6369 9.11222 50.8399 8.69069C51.0459 8.27228 51.3832 8.0381 51.5892 8.16924C51.7953 8.30351 51.7953 8.75314 51.5892 9.17155Z" fill="#F09959"/>
<path d="M46.7401 8.72186C46.9805 9.10592 47.0243 9.56804 46.8431 9.75539C46.662 9.94273 46.3217 9.78349 46.0844 9.40255C45.844 9.01849 45.8002 8.55637 45.9814 8.36902C46.1625 8.18168 46.5028 8.34092 46.7401 8.72186Z" fill="#F09959"/>
<path d="M51.0521 9.14658C51.0521 10.6766 50.0872 11.9193 48.8945 11.9193C47.7048 11.9193 46.74 10.6766 46.74 9.14658C46.74 7.61346 47.7048 6.37073 48.8945 6.37073C50.0872 6.37073 51.0521 7.61346 51.0521 9.14658Z" fill="#F09959"/>
<path d="M52.4687 16.0813C54.4522 17.047 56.1811 20.7092 56.1811 20.7092C56.1811 20.7092 51.7184 21.3463 50.7925 21.9794C49.8666 22.6125 50.9241 21.739 51.4551 19.984C51.9817 18.233 52.4687 16.0813 52.4687 16.0813Z" fill="#EDC055"/>
<path d="M45.1959 15.7325C45.6797 17.4365 47.9845 22.1852 47.9845 22.1852C47.9845 22.1852 45.8485 20.3083 43.5802 20.1989C41.3118 20.0931 40.472 20.0684 40.4857 20.4918C40.4857 20.5764 40.8645 18.6043 42.6171 17.3836C44.3698 16.1594 45.1959 15.7325 45.1959 15.7325Z" fill="#EDC055"/>
<path d="M50.2704 25.3242H47.7909C47.691 25.3242 47.6056 25.174 47.5893 24.9712L47.2895 21.2818C47.2687 21.0246 47.3649 20.7899 47.4921 20.7899H50.5692C50.6963 20.7899 50.7926 21.0246 50.7717 21.2818L50.472 24.9712C50.4557 25.174 50.3703 25.3242 50.2704 25.3242Z" fill="#2A66C6"/>
<path d="M50.2704 25.3242H47.7909C47.691 25.3242 47.6056 25.18 47.5893 24.9853L47.2895 21.4382C47.2687 21.1891 47.3649 20.9644 47.4921 20.9644H50.5692C50.6963 20.9644 50.7926 21.1891 50.7717 21.4382L50.472 24.9853C50.4557 25.18 50.3703 25.3242 50.2704 25.3242Z" fill="#63ACC2"/>
<path d="M48.3982 28.1404C47.4459 28.3621 42.1502 28.3434 43.368 27.3379C44.5857 26.3325 50.0406 27.697 50.0937 27.7064C50.0937 27.7064 49.3506 27.9218 48.3982 28.1404Z" fill="#1B243D"/>
<path d="M51.3114 27.95C51.3114 27.95 52.4761 27.0726 54.0092 27.2318C55.5454 27.3911 56.8694 27.7252 55.5454 28.1405C54.2215 28.5558 52.8445 28.6088 52.2107 28.5558C51.5737 28.5027 51.3114 27.95 51.3114 27.95Z" fill="#1B243D"/>
<path d="M50.4466 6.53309C50.5621 7.63531 50.4965 9.34017 48.8947 9.46819C47.296 9.59933 46.8089 5.6588 48.2078 5.23415C49.6535 4.79701 50.3342 5.42774 50.4466 6.53309Z" fill="#0F2D5C"/>
<path d="M47.7049 8.15365C47.3146 7.78208 46.7807 8.95612 46.9899 9.47133C47.2022 9.98965 46.9056 10.2894 47.1929 10.8452C47.477 11.401 46.6652 10.4924 46.5528 9.82729C46.4404 9.16221 46.3748 8.01002 46.2124 7.48857C46.0501 6.97024 46.2187 6.07098 46.9431 5.88363C47.6675 5.69628 47.8361 5.36218 48.1109 5.34657C48.3856 5.33096 49.7002 5.4621 50.3497 5.81806C50.9991 6.17402 51.3551 6.71108 51.3083 7.52292C51.2583 8.33475 51.0491 10.4112 50.8524 10.7515C50.6588 11.0919 50.5589 11.0107 50.6151 10.8171C50.6744 10.6204 50.8867 9.45259 50.7244 9.03106C50.562 8.60953 50.6432 7.56975 50.2216 7.48857C49.797 7.40739 49.8969 8.12868 49.3911 8.18176C48.8884 8.23484 47.7049 8.15365 47.7049 8.15365Z" fill="#0F2D5C"/>
<path d="M27.4233 24.8089C27.4233 32.3258 21.3321 38.4213 13.8109 38.4213C6.29407 38.4213 0.198517 32.3258 0.198517 24.8089C0.198517 17.2921 6.29407 11.1965 13.8109 11.1965C21.3321 11.1965 27.4233 17.2921 27.4233 24.8089Z" fill="#D5EBFE"/>
<path d="M27.2057 24.8089C27.2057 32.2057 21.2118 38.2038 13.8109 38.2038C6.41417 38.2038 0.416014 32.2056 0.416014 24.8089C0.416014 17.4122 6.41417 11.4141 13.8109 11.4141C21.2118 11.4141 27.2057 17.4122 27.2057 24.8089Z" stroke="#0085FF" stroke-width="0.435055"/>
<path d="M22.8399 21.4695C22.8399 21.4695 23.7514 21.5472 23.8119 21.8842C23.8681 22.2212 21.9241 23.5949 21.3884 23.8541C20.857 24.109 20.4294 23.7116 20.4294 23.7116C20.0233 23.6943 22.8399 21.4695 22.8399 21.4695Z" fill="#255096"/>
<path d="M20.9436 23.6597C20.5764 23.6035 21.7774 22.6445 22.1705 22.2514C22.5636 21.8539 22.8185 21.6725 22.8185 21.6725C22.8185 21.6725 23.4881 21.7546 23.4881 21.8842C23.4881 22.0138 21.5614 23.5517 21.5614 23.5517C21.5614 23.5517 21.1078 23.6856 20.9436 23.6597Z" fill="#FFC34E"/>
<path d="M18.5846 25.379C18.5846 25.379 19.2845 24.1953 19.6215 23.8756C19.9584 23.5603 21.0903 22.9512 21.2631 22.9468C21.5568 22.9382 20.2522 23.8195 20.2522 23.8195C20.2522 23.8195 20.4293 24.9643 20.2738 25.379C20.1139 25.7937 18.455 26.3467 18.455 26.3467L18.5846 25.379Z" fill="#F09959"/>
<path d="M17.2802 26.6232C17.2802 26.6232 18.425 24.9038 18.6842 25.0248C18.9391 25.1414 19.6303 26.6232 19.6303 26.6232C19.6303 26.6232 17.6172 28.7184 17.6172 28.321C17.6172 27.9278 17.2802 26.6232 17.2802 26.6232Z" fill="#FB8627"/>
<path d="M15.6688 18.4455C15.6688 18.4455 14.9042 21.1325 14.9042 21.7633C14.9042 22.3983 15.7725 23.353 17.7079 26.0314C19.6692 28.7444 20.9868 36.1446 20.1962 37.9633C19.4056 39.7777 13.4786 40.9657 11.8197 40.2529C10.1608 39.5445 11.2667 39.7 11.1112 34.0105C10.9514 28.321 11.3488 25.0853 12.135 23.3444C12.9256 21.6077 14.1136 17.4216 14.1136 17.4216L15.6688 18.4455Z" fill="#F09959"/>
<path d="M11.8197 40.2529C10.1608 39.5444 11.2667 39.6999 11.1112 34.0105C10.9514 28.321 11.3488 25.0853 12.135 23.3443C12.3122 22.9555 12.5109 22.4458 12.7096 21.8842C13.7032 22.1866 14.74 22.7093 15.6775 23.2666C16.1354 23.9102 16.805 24.7829 17.7079 26.0314C19.6692 28.7443 20.9868 36.1445 20.1962 37.9633C19.4056 39.7777 13.4786 40.9657 11.8197 40.2529Z" fill="url(#paint0_linear_1382_7384)"/>
<path d="M12.0055 21.1325C12.0271 20.8085 16.2478 22.476 16.2737 22.7914C16.2996 23.1067 16.5459 24.2861 16.8958 24.9211C17.2457 25.5562 11.0206 29.1072 11.2495 27.3792C11.4785 25.6512 11.9537 22.0008 12.0055 21.1325Z" fill="url(#paint1_linear_1382_7384)"/>
<path d="M13.4656 19.5946C13.8371 18.3936 14.1136 17.4216 14.1136 17.4216L15.6688 18.4455C15.6688 18.4455 14.9042 21.1325 14.9042 21.7633C14.9042 21.7863 14.9042 21.8108 14.9042 21.8367C14.3987 21.53 13.9451 21.0375 13.4656 19.5946Z" fill="#E38540"/>
<path d="M18.0234 19.465C17.7383 20.7654 16.8398 21.6898 15.7986 21.435C15.0383 21.2492 13.8676 20.1821 14.2434 18.6269C14.5545 17.3309 15.6085 16.4583 16.654 16.6872C17.6994 16.9205 18.3129 18.1604 18.0234 19.465Z" fill="#F09959"/>
<path d="M17.7597 29.2671C19.0384 28.2649 20.5634 25.1372 20.6843 24.4546C20.8096 23.772 21.6045 23.1975 21.6995 23.245C21.7989 23.2925 21.3885 23.8541 21.3885 23.8541C21.3885 23.8541 22.9653 22.4069 23.3541 22.476C23.7429 22.5408 22.8616 24.2516 21.7859 25.0162C21.0213 25.5605 20.9003 27.3015 19.8203 29.1634C18.7446 31.0254 16.4766 30.2694 17.7597 29.2671Z" fill="#F09959"/>
<path d="M18.3212 27.0726C19.0945 28.6148 19.7165 30.8051 20.0794 32.8484C19.8937 33.1292 19.6085 33.4489 19.1809 33.7686C18.049 34.6067 15.0207 37.5659 13.4093 34.1401C11.7936 30.7187 10.921 24.9471 12.8347 24.4676C15.66 23.7634 16.5197 29.1894 18.3212 27.0726Z" fill="url(#paint2_linear_1382_7384)"/>
<path d="M16.5198 30.0059C16.5198 30.0059 19.5438 25.8414 20.2134 25.7939C20.9262 25.742 21.5181 25.7982 21.5181 26.0876C21.5181 27.6342 19.9153 30.0059 19.1291 31.4012C18.3385 32.8009 15.8372 35.1424 14.079 32.7189C12.3207 30.2953 11.0031 24.2948 13.4094 24.0572C15.5089 23.8455 16.5198 30.0059 16.5198 30.0059Z" fill="url(#paint3_linear_1382_7384)"/>
<path d="M17.0683 15.4215C19.5783 15.5943 19.2543 19.4823 19.2543 19.4823C19.2543 19.4823 17.185 19.5428 16.5715 19.3613C15.9538 19.1842 15.323 18.7004 15.323 18.7004C15.323 18.7004 14.9429 20.1735 13.9061 20.2556C12.8693 20.3376 12.8693 20.3376 12.8693 20.3376C12.8693 20.3376 12.1867 17.5426 12.7267 16.2811C13.8499 13.6675 16.0877 14.9765 17.0683 15.4215Z" fill="#0F2D5C"/>
<path d="M14.5755 18.2943C14.8606 18.1863 15.2149 18.4066 15.3618 18.7868C15.5086 19.1669 15.4006 19.5687 15.1155 19.681C14.8304 19.789 14.4805 19.5687 14.3293 19.1885C14.1824 18.8041 14.2904 18.4066 14.5755 18.2943Z" fill="#F09959"/>
<path d="M13.0896 19.8279C13.0896 19.8495 13.0853 19.8667 13.068 19.884L12.1781 20.7912C12.1651 20.8085 12.1565 20.8301 12.1608 20.856C12.1824 21.0202 12.2602 21.7719 12.1565 23.2623C12.0442 24.8045 9.36575 25.5087 10.7179 28.2606C12.0701 31.0124 10.4846 34.0105 7.17118 34.058C4.199 34.1012 4.54892 31.034 4.6526 30.3946C4.66124 30.3428 4.72172 30.3169 4.76924 30.3471C5.14077 30.5934 6.63549 31.5265 7.77166 30.5372C9.00287 29.4615 8.09566 28.3038 6.84285 25.3964C4.85996 20.7999 10.8173 20.3117 11.6554 20.221C12.2472 20.1562 12.7224 19.2403 12.947 18.709C12.9773 18.6355 13.0896 18.6571 13.0896 18.7392V19.8279Z" fill="#0F2D5C"/>
<path fill-rule="evenodd" clip-rule="evenodd" d="M6.52728 30.8526C5.85336 30.8526 4.79064 30.5761 4.74312 30.5631C4.69127 30.5502 4.65672 30.4983 4.66536 30.4465C4.674 30.3903 4.72583 30.3515 4.77767 30.3558C4.79063 30.3601 6.22056 30.4811 6.77785 30.0404C7.48201 29.4875 7.08889 28.5802 6.43656 27.0769C6.16008 26.4418 5.84904 25.7204 5.56392 24.8866C5.0196 23.3098 5.6028 22.2255 6.186 21.5948C7.41721 20.2685 9.8105 19.6983 11.8798 20.2383C11.936 20.2513 11.9705 20.3074 11.9576 20.3636C11.9403 20.4197 11.8841 20.4543 11.828 20.4413C11.779 20.4269 11.73 20.414 11.6811 20.4024C9.05018 20.45 7.34809 21.0591 6.63096 22.2212C6.00456 23.2364 6.13416 24.6836 7.01545 26.5239C7.87945 28.3167 8.10841 29.5782 7.70233 30.2737C7.50361 30.6193 7.14073 30.818 6.6612 30.8483C6.618 30.8511 6.57336 30.8526 6.52728 30.8526ZM5.754 30.5631C6.06936 30.615 6.40632 30.6539 6.64824 30.6366C7.06297 30.6107 7.35673 30.4508 7.52089 30.1657C7.77577 29.7337 7.85785 28.766 6.82537 26.6146C5.90952 24.7052 5.78424 23.1889 6.45384 22.1089C7.10185 21.0591 8.48425 20.437 10.5665 20.2512C8.92489 20.1735 7.27897 20.7265 6.34152 21.7373C5.5596 22.5841 5.35656 23.6468 5.76264 24.8175C6.04344 25.6426 6.35448 26.3598 6.63096 26.9905C7.29625 28.5327 7.74121 29.5523 6.90745 30.2089C6.62664 30.4292 6.17304 30.5243 5.754 30.5631Z" fill="#0F2D5C"/>
<defs>
<linearGradient id="paint0_linear_1382_7384" x1="30.5513" y1="25.6296" x2="10.0398" y2="49.9513" gradientUnits="userSpaceOnUse">
<stop stop-color="#FFC157"/>
<stop offset="1" stop-color="#FF812D"/>
</linearGradient>
<linearGradient id="paint1_linear_1382_7384" x1="23.2462" y1="17.0198" x2="2.05222" y2="42.1537" gradientUnits="userSpaceOnUse">
<stop stop-color="#FFC157"/>
<stop offset="1" stop-color="#FF812D"/>
</linearGradient>
<linearGradient id="paint2_linear_1382_7384" x1="29.7476" y1="15.2573" x2="16.5932" y2="38.7928" gradientUnits="userSpaceOnUse">
<stop stop-color="#FFC157"/>
<stop offset="1" stop-color="#FF812D"/>
</linearGradient>
<linearGradient id="paint3_linear_1382_7384" x1="27.9635" y1="20.7826" x2="6.58376" y2="46.1282" gradientUnits="userSpaceOnUse">
<stop stop-color="#FFC157"/>
<stop offset="1" stop-color="#FF812D"/>
</linearGradient>
</defs>
</svg>
