<svg width="207" height="200" viewBox="0 0 207 200" fill="none" xmlns="http://www.w3.org/2000/svg">
<circle cx="108.155" cy="118.324" r="53.858" fill="#FFF1E5"/>
<circle cx="155.485" cy="110.164" r="15.5046" fill="#FFF1E5"/>
<circle cx="60.8251" cy="110.164" r="15.5046" fill="#FFF1E5"/>
<path d="M69.0398 109.934C69.0398 109.934 73.1261 104.34 81.5956 104.099C90.0671 103.862 95.0629 109.202 95.0629 109.202" stroke="#24272F" stroke-width="5.3169" stroke-miterlimit="10" stroke-linecap="round"/>
<path d="M115.056 108.592C115.056 108.592 118.444 103.014 127.481 102.759C136.515 102.504 141.078 107.855 141.078 107.855" stroke="#24272F" stroke-width="5.3169" stroke-miterlimit="10" stroke-linecap="round"/>
<path d="M122.561 142.646C118.952 142.646 116.64 142.646 116.64 142.646" stroke="#9773E5" stroke-width="10.9714" stroke-linecap="round"/>
<path d="M105.974 129.113C110.173 129.113 113.575 132.515 113.575 136.711C113.575 139.015 112.546 141.083 110.928 142.474C112.546 143.868 113.575 145.932 113.575 148.239C113.575 152.435 110.173 155.838 105.974 155.838" stroke="#24272F" stroke-width="5.48592" stroke-linecap="round" stroke-linejoin="round"/>
<path d="M30.7792 34.8903C33.9709 34.8903 36.5584 37.4777 36.5584 40.6695C36.5584 43.8608 33.9709 46.4487 30.7792 46.4487C27.5874 46.4487 25 43.8608 25 40.6695C25 37.4777 27.5874 34.8903 30.7792 34.8903Z" fill="#9773E5"/>
<path d="M186.34 170.759C189.532 170.759 192.119 173.347 192.119 176.538C192.119 179.73 189.532 182.318 186.34 182.318C183.148 182.318 180.561 179.73 180.561 176.538C180.561 173.347 183.148 170.759 186.34 170.759Z" fill="#9773E5"/>
<path d="M145.649 0C148.84 0 151.427 2.58745 151.427 5.7792C151.427 8.97055 148.84 11.5584 145.649 11.5584C142.457 11.5584 139.869 8.97055 139.869 5.7792C139.869 2.58745 142.457 0 145.649 0Z" fill="#F76131"/>
<path d="M5.7792 151.244C8.97055 151.244 11.5584 153.832 11.5584 157.024C11.5584 160.215 8.97055 162.803 5.7792 162.803C2.58745 162.803 0 160.215 0 157.024C0 153.832 2.58745 151.244 5.7792 151.244Z" fill="#F76131"/>
<path d="M200.779 66.3098C203.971 66.3098 206.558 68.8973 206.558 72.089C206.558 75.2808 203.971 77.8682 200.779 77.8682C197.588 77.8682 195 75.2808 195 72.089C195 68.8973 197.588 66.3098 200.779 66.3098Z" fill="#FB9845"/>
<path d="M62.2708 188.442C65.4625 188.442 68.05 191.029 68.05 194.22C68.05 197.412 65.4625 200 62.2708 200C59.079 200 56.4916 197.412 56.4916 194.22C56.4916 191.029 59.079 188.442 62.2708 188.442Z" fill="#FB9845"/>
</svg>
