<svg width="219" height="204" viewBox="0 0 219 204" fill="none" xmlns="http://www.w3.org/2000/svg">
<circle cx="108.572" cy="118.324" r="53.858" fill="white"/>
<circle cx="108.572" cy="118.324" r="53.858" fill="#FFF1E5"/>
<circle cx="155.902" cy="110.164" r="15.5046" fill="white"/>
<circle cx="155.902" cy="110.164" r="15.5046" fill="#FFF1E5"/>
<circle cx="61.2424" cy="110.164" r="15.5046" fill="white"/>
<circle cx="61.2424" cy="110.164" r="15.5046" fill="#FFF1E5"/>
<path d="M118.417 85.8145C118.417 85.8145 120.974 84.175 126.846 86.7724C132.717 89.3687 135.328 93.292 135.328 93.292" stroke="#24272F" stroke-width="5.3169" stroke-miterlimit="10" stroke-linecap="round"/>
<path d="M111.338 141C107.728 141 105.417 141 105.417 141" stroke="#FF0000" stroke-width="10.9714" stroke-linecap="round"/>
<path d="M89.4407 139.718C89.4407 139.718 95.5266 145.415 109 145.5C122.47 145.586 128.238 139.968 128.238 139.968" stroke="#24272F" stroke-width="5.3169" stroke-miterlimit="10" stroke-linecap="round"/>
<path d="M97.8108 85.8144C97.8108 85.8144 95.254 84.1749 89.3813 86.7723C83.5103 89.3685 80.8996 93.2919 80.8996 93.2919" stroke="#24272F" stroke-width="5.3169" stroke-miterlimit="10" stroke-linecap="round"/>
<path d="M44.8988 34.8903C48.0906 34.8903 50.678 37.4777 50.678 40.6695C50.678 43.8608 48.0906 46.4487 44.8988 46.4487C41.7071 46.4487 39.1196 43.8608 39.1196 40.6695C39.1196 37.4777 41.7071 34.8903 44.8988 34.8903Z" fill="#9773E5"/>
<path d="M192.779 129C195.971 129 198.558 131.587 198.558 134.779C198.558 137.971 195.971 140.558 192.779 140.558C189.587 140.558 187 137.971 187 134.779C187 131.587 189.587 129 192.779 129Z" fill="#9773E5"/>
<path d="M122.779 0C125.971 0 128.558 2.58745 128.558 5.7792C128.558 8.97055 125.971 11.5584 122.779 11.5584C119.587 11.5584 117 8.97055 117 5.7792C117 2.58745 119.587 0 122.779 0Z" fill="#F76131"/>
<path d="M8.7792 112C11.9706 112 14.5584 114.588 14.5584 117.779C14.5584 120.971 11.9706 123.558 8.7792 123.558C5.58745 123.558 3 120.971 3 117.779C3 114.588 5.58745 112 8.7792 112Z" fill="#F76131"/>
<path d="M168.523 66.3098C171.715 66.3098 174.303 68.8973 174.303 72.089C174.303 75.2808 171.715 77.8682 168.523 77.8682C165.332 77.8682 162.744 75.2808 162.744 72.089C162.744 68.8973 165.332 66.3098 168.523 66.3098Z" fill="#FB9845"/>
<path d="M93.7792 191C96.9709 191 99.5584 193.587 99.5584 196.779C99.5584 199.971 96.9709 202.558 93.7792 202.558C90.5874 202.558 88 199.971 88 196.779C88 193.587 90.5874 191 93.7792 191Z" fill="#FB9845"/>
<path d="M48.392 139.742C47.2253 141.56 44.8284 145.582 44.5738 147.122C44.2557 149.048 45.2102 151.936 46.8011 154.182C48.8465 157.07 50.7727 164.187 49.5 169C47.9928 174.7 42 178 37.5738 178.889C33.1476 179.779 25.1648 179.21 18.483 173.434C13.3921 174.076 7.31816 174.784 3.5 173.5C-0.318162 172.216 1.30126 167.659 4.16488 167.017C5.59787 166.696 8.51329 166.375 9.25568 166.375C5.96782 166.375 -0.480634 165.284 0.0284541 160.92C0.526357 156.652 6.94905 156.947 10.307 157.663C6.64863 156.812 0.0668705 153.142 1.93767 149.369C3.21034 146.481 9.89217 147.764 13.7103 149.369C9.25568 146.481 6.33927 144.876 7.66491 141.667C9.25568 137.817 18.3463 143.146 20.0739 144.234C22.6194 145.839 24.5285 147.122 27.3921 148.406C29.3012 148.834 33.5648 149.946 35.3466 150.973C35.3466 147.122 35.3466 138.138 43.3011 135.571C49.6647 133.517 49.3465 137.496 48.392 139.742Z" fill="white"/>
<path d="M48.392 139.742C47.2253 141.56 44.8284 145.582 44.5738 147.122C44.2557 149.048 45.2102 151.936 46.8011 154.182C48.8465 157.07 50.7727 164.187 49.5 169C47.9928 174.7 42 178 37.5738 178.889C33.1476 179.779 25.1648 179.21 18.483 173.434C13.3921 174.076 7.31816 174.784 3.5 173.5C-0.318162 172.216 1.30126 167.659 4.16488 167.017C5.59787 166.696 8.51329 166.375 9.25568 166.375C5.96782 166.375 -0.480634 165.284 0.0284541 160.92C0.526357 156.652 6.94905 156.947 10.307 157.663C6.64863 156.812 0.0668705 153.142 1.93767 149.369C3.21034 146.481 9.89217 147.764 13.7103 149.369C9.25568 146.481 6.33927 144.876 7.66491 141.667C9.25568 137.817 18.3463 143.146 20.0739 144.234C22.6194 145.839 24.5285 147.122 27.3921 148.406C29.3012 148.834 33.5648 149.946 35.3466 150.973C35.3466 147.122 35.3466 138.138 43.3011 135.571C49.6647 133.517 49.3465 137.496 48.392 139.742Z" fill="#FFF1E5"/>
<path d="M170.425 139.742C171.592 141.56 173.989 145.582 174.243 147.122C174.561 149.048 173.607 151.936 172.016 154.182C169.97 157.07 168.044 164.187 169.317 169C170.824 174.7 176.817 178 181.243 178.889C185.669 179.779 193.652 179.21 200.334 173.434C205.425 174.076 211.499 174.784 215.317 173.5C219.135 172.216 217.516 167.659 214.652 167.017C213.219 166.696 210.304 166.375 209.561 166.375C212.849 166.375 219.298 165.284 218.788 160.92C218.291 156.652 211.868 156.947 208.51 157.663C212.168 156.812 218.75 153.142 216.879 149.369C215.607 146.481 208.925 147.764 205.107 149.369C209.561 146.481 212.478 144.876 211.152 141.667C209.561 137.817 200.471 143.146 198.743 144.234C196.198 145.839 194.288 147.122 191.425 148.406C189.516 148.834 185.252 149.946 183.47 150.973C183.47 147.122 183.47 138.138 175.516 135.571C169.152 133.517 169.47 137.496 170.425 139.742Z" fill="white"/>
<path d="M170.425 139.742C171.592 141.56 173.989 145.582 174.243 147.122C174.561 149.048 173.607 151.936 172.016 154.182C169.97 157.07 168.044 164.187 169.317 169C170.824 174.7 176.817 178 181.243 178.889C185.669 179.779 193.652 179.21 200.334 173.434C205.425 174.076 211.499 174.784 215.317 173.5C219.135 172.216 217.516 167.659 214.652 167.017C213.219 166.696 210.304 166.375 209.561 166.375C212.849 166.375 219.298 165.284 218.788 160.92C218.291 156.652 211.868 156.947 208.51 157.663C212.168 156.812 218.75 153.142 216.879 149.369C215.607 146.481 208.925 147.764 205.107 149.369C209.561 146.481 212.478 144.876 211.152 141.667C209.561 137.817 200.471 143.146 198.743 144.234C196.198 145.839 194.288 147.122 191.425 148.406C189.516 148.834 185.252 149.946 183.47 150.973C183.47 147.122 183.47 138.138 175.516 135.571C169.152 133.517 169.47 137.496 170.425 139.742Z" fill="#FFF1E5"/>
</svg>
