<svg width="27" height="22" viewBox="0 0 27 22" fill="none" xmlns="http://www.w3.org/2000/svg">
<path fill-rule="evenodd" clip-rule="evenodd" d="M24.64 9.21018C25.4 10.0235 25.9733 11.0235 26.32 12.1702C27.2 15.0635 26.4 18.0368 24.2267 19.9435C22.84 21.2102 21.0267 21.9168 19.1333 21.9168H14.3911V16.5146L15.671 17.7945C15.821 17.9445 16.011 18.0145 16.201 18.0145C16.391 18.0145 16.581 17.9445 16.731 17.7945C17.021 17.5045 17.021 17.0245 16.731 16.7345L14.171 14.1745C13.881 13.8845 13.401 13.8845 13.111 14.1745L10.551 16.7345C10.261 17.0245 10.261 17.5045 10.551 17.7945C10.841 18.0845 11.321 18.0845 11.611 17.7945L12.8911 16.5144V21.9168H5.29333C1.64 21.6502 0 18.8368 0 16.3302C0 16.1968 0 16.0635 0.0133333 15.9168C0.16 13.7968 1.48 11.5702 4.14667 10.9168C3.36 7.81018 4.02667 4.89018 6.05333 2.77018C8.36 0.356845 12.04 -0.603155 15.2133 0.383512C18.1333 1.27684 20.1867 3.67684 20.92 7.01018C22.3733 7.34351 23.6667 8.10351 24.64 9.21018Z" fill="#707070"/>
</svg>
