<svg width="24" height="24" viewBox="0 0 24 24" fill="none" xmlns="http://www.w3.org/2000/svg">
<path fill-rule="evenodd" clip-rule="evenodd" d="M20.8656 11.5343C20.9901 11.4098 21.1591 11.3398 21.3353 11.3398L21.3358 11.3397C21.512 11.3397 21.6808 11.4097 21.8055 11.5342C21.93 11.6588 22 11.8278 22 12.0039C21.9991 14.0932 21.3439 16.1295 20.1265 17.8272C18.9089 19.525 17.1903 20.7987 15.2118 21.4697C13.2335 22.1408 11.0946 22.1753 9.09552 21.5685C7.09635 20.9617 5.33742 19.7441 4.06575 18.0866C2.79425 16.429 2.0736 14.415 2.00536 12.327C1.93699 10.239 2.52433 8.18208 3.68474 6.44498C4.84518 4.70773 6.52056 3.3777 8.47573 2.64141C10.4308 1.9053 12.5673 1.79992 14.5855 2.34008C14.8151 2.4013 14.9946 2.58036 15.0565 2.80995C15.1182 3.03938 15.053 3.28444 14.8851 3.45281C14.7172 3.62101 14.4723 3.68702 14.2425 3.6258C12.4959 3.16039 10.6472 3.25349 8.95604 3.89206C7.26495 4.53079 5.81598 5.6827 4.8128 7.18653C3.80946 8.69023 3.30213 10.4703 3.36191 12.2771C3.42155 14.0838 4.04542 15.8264 5.14586 17.2608C6.2461 18.6949 7.76793 19.7488 9.49767 20.2741C11.2272 20.7996 13.0779 20.7705 14.7903 20.1907C16.5024 19.611 17.9903 18.5098 19.045 17.0415C20.0997 15.5733 20.6682 13.8117 20.6709 12.004C20.6709 11.8278 20.7409 11.6588 20.8656 11.5343ZM17.4926 5.29674C16.9682 4.86707 16.3952 4.5002 15.7855 4.20381L15.7783 4.20374C15.564 4.09917 15.4216 3.88823 15.4052 3.65019C15.3886 3.41232 15.5002 3.18352 15.6979 3.05024C15.8958 2.91695 16.1496 2.89925 16.364 3.00384C17.0684 3.34665 17.7301 3.7709 18.3355 4.2682C18.5192 4.41869 18.6086 4.65578 18.57 4.89016C18.5316 5.12471 18.3709 5.32066 18.1486 5.40452C17.9264 5.48839 17.6764 5.44725 17.4926 5.29674ZM20.1785 9.14676C20.2689 9.40393 20.3475 9.6681 20.4142 9.93965C20.4496 10.0851 20.5331 10.2142 20.6511 10.3062C20.7691 10.3982 20.9146 10.4478 21.0642 10.4468C21.1163 10.4532 21.1693 10.4532 21.2214 10.4468C21.3931 10.4046 21.5409 10.2957 21.6321 10.1442C21.7231 9.99274 21.7502 9.81114 21.707 9.6396C21.6284 9.33252 21.5356 9.02528 21.4357 8.7254C21.3566 8.50075 21.1637 8.33557 20.9296 8.29173C20.6956 8.24788 20.456 8.33239 20.301 8.51319C20.1462 8.69399 20.0994 8.94368 20.1785 9.16817L20.1785 9.14676ZM19.9644 7.76016C19.7249 7.76925 19.4988 7.64983 19.3713 7.44702L19.3712 7.44701C19.1852 7.13465 18.98 6.83396 18.7569 6.54698C18.6075 6.36188 18.5683 6.11141 18.6539 5.88963C18.7395 5.66771 18.9369 5.50843 19.1718 5.47176C19.4066 5.43493 19.6432 5.52629 19.7926 5.71123C20.0516 6.03662 20.2903 6.37767 20.5069 6.73274C20.6345 6.93555 20.6442 7.19113 20.5323 7.40302C20.4204 7.61491 20.2038 7.75107 19.9644 7.76016ZM11.9995 4.66807C10.0539 4.66807 8.18811 5.44105 6.81216 6.81667C5.43653 8.19246 4.66356 10.0582 4.66356 12.004C4.66356 13.9498 5.43653 15.8154 6.81216 17.1913C8.18795 18.5669 10.0537 19.3399 11.9995 19.3399C13.9453 19.3399 15.8108 18.5669 17.1868 17.1913C18.5624 15.8155 19.3354 13.9498 19.3354 12.004C19.3335 10.059 18.56 8.19422 17.1848 6.81872C15.8095 5.44342 13.9446 4.66995 11.9995 4.66807ZM11.9995 18.0039C10.4081 18.0039 8.88215 17.3718 7.75664 16.2466C6.63151 15.1213 5.9993 13.5953 5.9993 12.0037C5.9993 10.4122 6.63146 8.88642 7.75664 7.76091C8.88194 6.63578 10.4079 6.00358 11.9995 6.00358C13.591 6.00358 15.1168 6.63574 16.2423 7.76091C17.3674 8.88621 17.9996 10.4122 17.9996 12.0037C17.9977 13.5945 17.3651 15.1195 16.2403 16.2441C15.1154 17.369 13.5904 18.0016 11.9999 18.0035L11.9995 18.0039ZM12.6636 11.3323H13.9994C14.2381 11.3323 14.4584 11.4595 14.5779 11.6662C14.6971 11.8728 14.6971 12.1274 14.5779 12.334C14.4584 12.5407 14.2381 12.6679 13.9994 12.6679H12.6708V14.0037C12.6708 14.2424 12.5436 14.4627 12.3369 14.5821C12.1303 14.7014 11.8757 14.7014 11.6691 14.5821C11.4624 14.4627 11.3352 14.2424 11.3352 14.0037V12.6751H9.99942C9.76074 12.6751 9.5404 12.5478 9.42098 12.3412C9.30172 12.1346 9.30172 11.88 9.42098 11.6733C9.5404 11.4667 9.76074 11.3395 9.99942 11.3395H11.328V10.0037C11.328 9.765 11.4553 9.54466 11.6619 9.42524C11.8685 9.30598 12.1231 9.30598 12.3298 9.42524C12.5364 9.54466 12.6636 9.765 12.6636 10.0037V11.3323Z" fill="black"/>
</svg>
