<svg width="24" height="24" viewBox="0 0 24 24" fill="none" xmlns="http://www.w3.org/2000/svg">
<path d="M12.7386 22.4091C11 22.4091 9.46307 22.1705 8.12784 21.6932C6.79261 21.2216 5.67045 20.5256 4.76136 19.6051C3.85227 18.6847 3.16477 17.5568 2.69886 16.2216C2.23295 14.8864 2 13.358 2 11.6364C2 9.97159 2.2358 8.48295 2.70739 7.17045C3.18466 5.85796 3.875 4.74432 4.77841 3.82955C5.6875 2.90909 6.78977 2.20739 8.08523 1.72443C9.38636 1.24148 10.858 1 12.5 1C14.0966 1 15.4943 1.26136 16.6932 1.78409C17.8977 2.30114 18.9034 3.00284 19.7102 3.88921C20.5227 4.76989 21.1307 5.76136 21.5341 6.86364C21.9432 7.96591 22.1477 9.10227 22.1477 10.2727C22.1477 11.0966 22.108 11.9318 22.0284 12.7784C21.9489 13.625 21.7812 14.4034 21.5256 15.1136C21.2699 15.8182 20.875 16.3864 20.3409 16.8182C19.8125 17.25 19.0966 17.4659 18.1932 17.4659C17.7955 17.4659 17.358 17.4034 16.8807 17.2784C16.4034 17.1534 15.9801 16.946 15.6108 16.6563C15.2415 16.3665 15.0227 15.9773 14.9545 15.4886H14.8523C14.7159 15.8182 14.5057 16.1307 14.2216 16.4261C13.9432 16.7216 13.5767 16.9574 13.1222 17.1335C12.6733 17.3097 12.125 17.3864 11.4773 17.3636C10.7386 17.3352 10.0881 17.1705 9.52557 16.8693C8.96307 16.5625 8.49148 16.1477 8.1108 15.625C7.7358 15.0966 7.4517 14.4858 7.25852 13.7926C7.07102 13.0938 6.97727 12.3409 6.97727 11.5341C6.97727 10.767 7.09091 10.0653 7.31818 9.42898C7.54545 8.79261 7.8608 8.2358 8.2642 7.75852C8.6733 7.28125 9.15057 6.90057 9.69602 6.61648C10.2472 6.32671 10.8409 6.14773 11.4773 6.07955C12.0455 6.02273 12.5625 6.0483 13.0284 6.15625C13.4943 6.25852 13.8778 6.41477 14.179 6.625C14.4801 6.82955 14.6705 7.05682 14.75 7.30682H14.8523V6.35227H16.6591V14.0568C16.6591 14.5341 16.7926 14.9545 17.0597 15.3182C17.3267 15.6818 17.7159 15.8636 18.2273 15.8636C18.8068 15.8636 19.25 15.6648 19.5568 15.267C19.8693 14.8693 20.0824 14.2557 20.196 13.4261C20.3153 12.5966 20.375 11.5341 20.375 10.2386C20.375 9.47727 20.2699 8.72727 20.0597 7.98864C19.8551 7.24432 19.5426 6.5483 19.1222 5.90057C18.7074 5.25284 18.1818 4.68182 17.5455 4.1875C16.9091 3.69318 16.1619 3.30682 15.304 3.02841C14.4517 2.74432 13.483 2.60227 12.3977 2.60227C11.0625 2.60227 9.86648 2.80966 8.80966 3.22443C7.75852 3.63352 6.86364 4.23295 6.125 5.02273C5.39205 5.80682 4.83239 6.76136 4.44602 7.88636C4.06534 9.00568 3.875 10.2784 3.875 11.7045C3.875 13.1534 4.06534 14.4403 4.44602 15.5653C4.83239 16.6903 5.40057 17.6392 6.15057 18.4119C6.90625 19.1847 7.84091 19.7699 8.95455 20.1676C10.0682 20.571 11.3523 20.7727 12.8068 20.7727C13.4318 20.7727 14.0483 20.7131 14.6563 20.5938C15.2642 20.4744 15.8011 20.3438 16.267 20.2017C16.733 20.0597 17.0682 19.9545 17.2727 19.8864L17.75 21.4545C17.3977 21.6023 16.9375 21.75 16.3693 21.8977C15.8068 22.0455 15.2045 22.1676 14.5625 22.2642C13.9261 22.3608 13.3182 22.4091 12.7386 22.4091ZM11.75 15.625C12.5114 15.625 13.1278 15.4716 13.5994 15.1648C14.071 14.858 14.4148 14.3949 14.6307 13.7756C14.8466 13.1563 14.9545 12.375 14.9545 11.4318C14.9545 10.4773 14.8352 9.73295 14.5966 9.19886C14.358 8.66477 14.0057 8.28977 13.5398 8.07386C13.0739 7.85795 12.5 7.75 11.8182 7.75C11.1705 7.75 10.6165 7.92045 10.1562 8.26136C9.7017 8.59659 9.35227 9.04545 9.10795 9.60795C8.86932 10.1648 8.75 10.7727 8.75 11.4318C8.75 12.1591 8.84659 12.8438 9.03977 13.4858C9.23295 14.1222 9.5483 14.6392 9.9858 15.0369C10.4233 15.429 11.0114 15.625 11.75 15.625Z" fill="black"/>
</svg>
