<svg width="18" height="16" viewBox="0 0 18 16" fill="none" xmlns="http://www.w3.org/2000/svg">
<path d="M12.482 2.62304C11.3466 1.6766 9.94069 1.11388 8.46581 1.01552C6.99093 0.917153 5.52277 1.2882 4.27172 2.07548C3.02067 2.86276 2.05095 4.02587 1.50152 5.39812C0.952097 6.77037 0.851168 8.28132 1.2132 9.71446C1.57523 11.1476 2.38164 12.4293 3.51687 13.376C4.65209 14.3227 6.05786 14.8857 7.53272 14.9844C9.00758 15.0831 10.4758 14.7123 11.727 13.9253C12.9782 13.1383 13.9482 11.9754 14.4979 10.6033" stroke="#292D32" stroke-width="1.5" stroke-miterlimit="10" stroke-linecap="round" stroke-linejoin="round"/>
<path d="M10 6C10.5523 6 11 5.55228 11 5C11 4.44772 10.5523 4 10 4C9.44772 4 9 4.44772 9 5C9 5.55228 9.44772 6 10 6Z" fill="#292D32"/>
<path d="M17 6H13" stroke="#292D32" stroke-width="1.5" stroke-miterlimit="10" stroke-linecap="round" stroke-linejoin="round"/>
<path d="M15 8V4" stroke="#292D32" stroke-width="1.5" stroke-miterlimit="10" stroke-linecap="round" stroke-linejoin="round"/>
<path d="M6 6C6.55228 6 7 5.55228 7 5C7 4.44772 6.55228 4 6 4C5.44772 4 5 4.44772 5 5C5 5.55228 5.44772 6 6 6Z" fill="#292D32"/>
<path d="M5.3 7.9751H10.7C11.075 7.9751 11.375 8.2751 11.375 8.6501C11.375 10.5176 9.8675 12.0251 8 12.0251C6.1325 12.0251 4.625 10.5176 4.625 8.6501C4.625 8.2751 4.925 7.9751 5.3 7.9751Z" stroke="#292D32" stroke-width="1.5" stroke-miterlimit="10" stroke-linecap="round" stroke-linejoin="round"/>
</svg>
