<svg width="18" height="18" viewBox="0 0 18 18" fill="none" xmlns="http://www.w3.org/2000/svg">
<path d="M11.4 17.3996C11.5591 17.3996 11.7117 17.3364 11.8243 17.2239C11.9368 17.1114 12 16.9587 12 16.7996C12 16.6405 11.9368 16.4879 11.8243 16.3753C11.7117 16.2628 11.5591 16.1996 11.4 16.1996H3.6C2.96348 16.1996 2.35303 15.9468 1.90294 15.4967C1.45286 15.0466 1.2 14.4361 1.2 13.7996V4.19961C1.2 3.56309 1.45286 2.95264 1.90294 2.50255C2.35303 2.05247 2.96348 1.79961 3.6 1.79961H11.4C11.5591 1.79961 11.7117 1.7364 11.8243 1.62387C11.9368 1.51135 12 1.35874 12 1.19961C12 1.04048 11.9368 0.887867 11.8243 0.775345C11.7117 0.662824 11.5591 0.599609 11.4 0.599609H3.6C2.64522 0.599609 1.72955 0.978894 1.05442 1.65402C0.379285 2.32916 0 3.24483 0 4.19961V13.7996C0 14.7544 0.379285 15.6701 1.05442 16.3452C1.72955 17.0203 2.64522 17.3996 3.6 17.3996H11.4ZM12.7752 4.37481C12.8309 4.31893 12.8971 4.2746 12.97 4.24435C13.0429 4.21411 13.1211 4.19854 13.2 4.19854C13.2789 4.19854 13.3571 4.21411 13.43 4.24435C13.5029 4.2746 13.5691 4.31893 13.6248 4.37481L17.8248 8.57481C17.8807 8.63054 17.925 8.69675 17.9553 8.76965C17.9855 8.84254 18.0011 8.92069 18.0011 8.99961C18.0011 9.07853 17.9855 9.15667 17.9553 9.22957C17.925 9.30246 17.8807 9.36867 17.8248 9.42441L13.6248 13.6244C13.569 13.6802 13.5028 13.7244 13.4299 13.7546C13.357 13.7848 13.2789 13.8004 13.2 13.8004C13.1211 13.8004 13.043 13.7848 12.9701 13.7546C12.8972 13.7244 12.831 13.6802 12.7752 13.6244C12.7194 13.5686 12.6752 13.5024 12.645 13.4295C12.6148 13.3566 12.5992 13.2785 12.5992 13.1996C12.5992 13.1207 12.6148 13.0426 12.645 12.9697C12.6752 12.8968 12.7194 12.8306 12.7752 12.7748L15.9516 9.59961H5.4C5.24087 9.59961 5.08826 9.5364 4.97574 9.42387C4.86321 9.31135 4.8 9.15874 4.8 8.99961C4.8 8.84048 4.86321 8.68787 4.97574 8.57534C5.08826 8.46282 5.24087 8.39961 5.4 8.39961H15.9516L12.7752 5.22441C12.7193 5.16867 12.675 5.10246 12.6447 5.02957C12.6145 4.95668 12.5989 4.87853 12.5989 4.79961C12.5989 4.72069 12.6145 4.64254 12.6447 4.56965C12.675 4.49675 12.7193 4.43054 12.7752 4.37481Z" fill="black"/>
</svg>
