<svg width="20" height="20" viewBox="0 0 20 20" fill="none" xmlns="http://www.w3.org/2000/svg">
<circle cx="10" cy="10" r="9.5" stroke="black"/>
<path d="M9.87335 15.0984C10.1968 14.8371 10.1968 14.4141 9.87335 14.1529L7.53172 12.2604H14.4667C14.9232 12.2604 15.2941 11.9607 15.2941 11.592C15.2941 11.2233 14.9231 10.9236 14.4667 10.9236H5.53402C5.32202 10.9236 5.11002 10.989 4.94882 11.1192C4.62642 11.3805 4.62642 11.8035 4.94882 12.0647L8.70422 15.0984C9.02637 15.3596 9.54995 15.3596 9.87335 15.0984Z" fill="black"/>
<path d="M10.1253 4.90199C9.80294 5.16327 9.80294 5.58622 10.1253 5.84747L12.4683 7.73996H5.53328C5.07681 7.73996 4.70587 8.03961 4.70587 8.40835C4.70587 8.77709 5.07684 9.07673 5.53328 9.07673H14.466C14.678 9.07673 14.89 9.01132 15.0512 8.8811C15.3746 8.61982 15.3746 8.19687 15.0512 7.93563L11.2958 4.90199C10.9723 4.64074 10.4487 4.64074 10.1253 4.90199Z" fill="black"/>
</svg>
