<svg width="24" height="24" viewBox="0 0 24 24" fill="none" xmlns="http://www.w3.org/2000/svg">
<path d="M21.9909 8.3623L19.0965 2.46557C19.0281 2.32635 18.9194 2.20869 18.7832 2.1262C18.6469 2.04385 18.4888 2 18.3273 2H5.79343C5.63393 2 5.47778 2.04269 5.34264 2.12316C5.20752 2.20363 5.09905 2.31853 5.02958 2.45486L2.01843 8.36233L2 8.3988V21.1307C2 21.3446 2.08942 21.5497 2.24862 21.7008C2.40766 21.852 2.62353 21.937 2.8487 21.937H21.1513C21.3765 21.937 21.5923 21.852 21.7514 21.7008C21.9106 21.5497 22 21.3446 22 21.1307V8.38139L21.9909 8.3623ZM17.0575 13.9241L17.056 13.9322L17.0508 13.962C16.8842 14.8712 16.383 15.7891 15.56 16.6909C14.7316 17.5983 13.5533 18.5166 12.0577 19.4195L12.0574 19.4198V19.4196C12.0192 19.4425 11.9704 19.4425 11.9322 19.4193C11.2369 19.0038 10.5688 18.5487 9.93136 18.0565C9.39193 17.6417 8.89044 17.1842 8.4322 16.689C7.60301 15.7774 7.10183 14.8486 6.94291 13.9286C6.86461 13.6272 6.84876 13.3142 6.89599 13.0071V13.0068C6.99166 12.4077 7.31691 11.8634 7.80942 11.4783C8.31898 11.0779 8.96021 10.8597 9.62151 10.8617C10.5858 10.8575 11.4846 11.3253 11.9998 12.0997C12.5152 11.3253 13.414 10.8574 14.3784 10.8617C15.7454 10.8617 16.9175 11.7857 17.1043 13.0103L17.1046 13.0145H17.1047C17.1506 13.3177 17.1344 13.6265 17.0575 13.9241L17.0575 13.9241ZM4.55916 7.19303L6.35861 3.66266H17.7526L19.4853 7.19258L4.55916 7.19303Z" fill="#0085FF"/>
</svg>
