<svg width="20" height="18" viewBox="0 0 20 18" fill="none" xmlns="http://www.w3.org/2000/svg">
<path d="M10 17.9535C9.71163 17.9535 9.43256 17.9163 9.2 17.8326C5.64651 16.614 0 12.2884 0 5.89767C0 2.64186 2.63256 0 5.86977 0C7.44186 0 8.91163 0.613954 10 1.71163C11.0884 0.613954 12.5581 0 14.1302 0C17.3674 0 20 2.65116 20 5.89767C20 12.2977 14.3535 16.614 10.8 17.8326C10.5674 17.9163 10.2884 17.9535 10 17.9535ZM5.86977 1.39535C3.40465 1.39535 1.39535 3.41395 1.39535 5.89767C1.39535 12.2512 7.50698 15.786 9.65581 16.5209C9.82326 16.5767 10.186 16.5767 10.3535 16.5209C12.493 15.786 18.614 12.2605 18.614 5.89767C18.614 3.41395 16.6047 1.39535 14.1395 1.39535C12.7256 1.39535 11.414 2.05581 10.5674 3.2C10.307 3.55349 9.71163 3.55349 9.45116 3.2C8.58605 2.04651 7.28372 1.39535 5.86977 1.39535Z" fill="#292D32"/>
<path d="M9.99994 10.3816C8.41855 10.3816 7.13483 9.09784 7.13483 7.51644C7.13483 5.93505 8.41855 4.65137 9.99994 4.65137C11.5813 4.65137 12.8651 5.93505 12.8651 7.51644C12.8651 9.09784 11.5813 10.3816 9.99994 10.3816ZM9.99994 6.04672C9.19064 6.04672 8.53018 6.70714 8.53018 7.51644C8.53018 8.32574 9.19064 8.98623 9.99994 8.98623C10.8092 8.98623 11.4697 8.32574 11.4697 7.51644C11.4697 6.70714 10.8092 6.04672 9.99994 6.04672Z" fill="#292D32"/>
<path d="M13.721 15.6471C13.3396 15.6471 13.0233 15.3308 13.0233 14.9494C13.0233 13.6657 11.6651 12.6146 10 12.6146C8.33491 12.6146 6.97677 13.6657 6.97677 14.9494C6.97677 15.3308 6.66049 15.6471 6.2791 15.6471C5.8977 15.6471 5.58142 15.3308 5.58142 14.9494C5.58142 12.8936 7.56282 11.2192 10 11.2192C12.4372 11.2192 14.4186 12.8936 14.4186 14.9494C14.4186 15.3308 14.1024 15.6471 13.721 15.6471Z" fill="#292D32"/>
</svg>
