<svg width="17" height="15" viewBox="0 0 17 15" fill="none" xmlns="http://www.w3.org/2000/svg">
<path d="M8.20455 14.2045L1.63352 7.63352C1.10938 7.10938 0.759943 6.5 0.585227 5.8054C0.414773 5.11079 0.416903 4.42045 0.591619 3.73438C0.766335 3.04403 1.11364 2.44318 1.63352 1.93182C2.16619 1.40767 2.77344 1.06037 3.45526 0.889915C4.14134 0.715199 4.82528 0.715199 5.5071 0.889915C6.19318 1.06463 6.80256 1.41193 7.33523 1.93182L8.20455 2.77557L9.07386 1.93182C9.6108 1.41193 10.2202 1.06463 10.902 0.889915C11.5838 0.715199 12.2656 0.715199 12.9474 0.889915C13.6335 1.06037 14.2429 1.40767 14.7756 1.93182C15.2955 2.44318 15.6428 3.04403 15.8175 3.73438C15.9922 4.42045 15.9922 5.11079 15.8175 5.8054C15.647 6.5 15.2997 7.10938 14.7756 7.63352L8.20455 14.2045Z" fill="#FF0000"/>
</svg>
