<svg width="20" height="20" viewBox="0 0 20 20" fill="none" xmlns="http://www.w3.org/2000/svg">
<path d="M10 0C15.523 0 20 4.477 20 10C20 15.523 15.523 20 10 20C8.404 20.0022 6.83083 19.6208 5.41301 18.888L1.58701 19.955C1.37355 20.0146 1.14809 20.0163 0.933732 19.9601C0.719374 19.9038 0.523824 19.7916 0.367118 19.6349C0.210412 19.4782 0.0981849 19.2826 0.0419355 19.0683C-0.0143139 18.8539 -0.0125631 18.6285 0.0470083 18.415L1.11501 14.592C0.38036 13.1729 -0.0020688 11.5979 8.41695e-06 10C8.41695e-06 4.477 4.47701 0 10 0ZM10 1.5C7.74567 1.5 5.58366 2.39553 3.9896 3.98959C2.39554 5.58365 1.50001 7.74566 1.50001 10C1.50001 11.47 1.87301 12.883 2.57301 14.137L2.72301 14.407L1.61101 18.391L5.59801 17.279L5.86801 17.429C7.00239 18.0597 8.26614 18.4222 9.56236 18.4888C10.8586 18.5554 12.1528 18.3242 13.3458 17.8131C14.5389 17.3019 15.599 16.5244 16.445 15.54C17.2909 14.5556 17.9002 13.3906 18.2261 12.1343C18.552 10.8779 18.5858 9.56364 18.325 8.29219C18.0643 7.02073 17.5158 5.82589 16.7216 4.79927C15.9275 3.77264 14.9088 2.94152 13.7437 2.36962C12.5786 1.79773 11.2979 1.50025 10 1.5ZM10 13.5C10.2652 13.5 10.5196 13.6054 10.7071 13.7929C10.8947 13.9804 11 14.2348 11 14.5C11 14.7652 10.8947 15.0196 10.7071 15.2071C10.5196 15.3946 10.2652 15.5 10 15.5C9.73479 15.5 9.48044 15.3946 9.2929 15.2071C9.10537 15.0196 9.00001 14.7652 9.00001 14.5C9.00001 14.2348 9.10537 13.9804 9.2929 13.7929C9.48044 13.6054 9.73479 13.5 10 13.5ZM10 4.75C10.7294 4.75 11.4288 5.03973 11.9446 5.55546C12.4603 6.07118 12.75 6.77065 12.75 7.5C12.75 8.51 12.453 9.074 11.699 9.859L11.53 10.03C10.908 10.652 10.75 10.916 10.75 11.5C10.75 11.6989 10.671 11.8897 10.5303 12.0303C10.3897 12.171 10.1989 12.25 10 12.25C9.8011 12.25 9.61033 12.171 9.46968 12.0303C9.32903 11.8897 9.25001 11.6989 9.25001 11.5C9.25001 10.49 9.54701 9.926 10.301 9.141L10.47 8.97C11.092 8.348 11.25 8.084 11.25 7.5C11.249 7.18028 11.1255 6.8731 10.9049 6.64165C10.6843 6.4102 10.3834 6.27208 10.0641 6.25568C9.74481 6.23929 9.43136 6.34587 9.18823 6.55351C8.9451 6.76115 8.79078 7.05406 8.75701 7.372L8.75001 7.5C8.75001 7.69891 8.67099 7.88968 8.53034 8.03033C8.38969 8.17098 8.19892 8.25 8.00001 8.25C7.8011 8.25 7.61033 8.17098 7.46968 8.03033C7.32903 7.88968 7.25001 7.69891 7.25001 7.5C7.25001 6.77065 7.53974 6.07118 8.05546 5.55546C8.57119 5.03973 9.27066 4.75 10 4.75Z" fill="black"/>
</svg>
