<svg width="24" height="24" viewBox="0 0 24 24" fill="none" xmlns="http://www.w3.org/2000/svg">
<path fill-rule="evenodd" clip-rule="evenodd" d="M18.75 22C19.3467 22 19.919 21.7572 20.3409 21.3248C20.7628 20.892 21 20.3057 21 19.6938V4.30617C21 3.69444 20.7629 3.10797 20.3409 2.67555C19.919 2.2428 19.3467 2 18.75 2H5.25C4.65334 2 4.08099 2.2428 3.6591 2.67555C3.23722 3.10796 3 3.69444 3 4.30617V19.6938C3 20.3056 3.23705 20.892 3.6591 21.3248C4.08098 21.7572 4.65334 22 5.25 22H18.75ZM19.5 8.17483V19.6938C19.5 19.8977 19.421 20.0933 19.2804 20.2374C19.1397 20.3816 18.9489 20.4626 18.75 20.4626H5.25C5.05112 20.4626 4.86027 20.3816 4.71964 20.2374C4.57902 20.0933 4.5 19.8977 4.5 19.6938V8.17483H19.5ZM19.5 6.63738H4.5V4.30617C4.5 4.10232 4.57902 3.90671 4.71964 3.76257C4.86027 3.61844 5.05112 3.53745 5.25 3.53745H18.75C18.9489 3.53745 19.1397 3.61844 19.2804 3.76257C19.421 3.90671 19.5 4.10232 19.5 4.30617V6.63738Z" fill="#0085FF"/>
<path fill-rule="evenodd" clip-rule="evenodd" d="M12 9C10.8963 9 10 9.89627 10 11C10 12.1037 10.8963 13 12 13C13.1037 13 14 12.1037 14 11C14 9.89627 13.1037 9 12 9ZM12 10.3333C12.368 10.3333 12.6667 10.632 12.6667 11C12.6667 11.368 12.368 11.6667 12 11.6667C11.632 11.6667 11.3333 11.368 11.3333 11C11.3333 10.632 11.632 10.3333 12 10.3333Z" fill="#0085FF"/>
<path fill-rule="evenodd" clip-rule="evenodd" d="M16 16.3062C16 15.0325 15.0968 14 13.9825 14H10.0175C8.90322 14 8 15.0325 8 16.3062V17.0749C8 18.3486 8.90322 19.3811 10.0175 19.3811H13.9825C15.0968 19.3811 16 18.3486 16 17.0749V16.3062ZM14.655 16.3062V17.0749C14.655 17.4994 14.3539 17.8436 13.9825 17.8436H10.0175C9.64611 17.8436 9.34499 17.4994 9.34499 17.0749V16.3062C9.34499 15.8817 9.64611 15.5374 10.0175 15.5374H13.9825C14.3539 15.5374 14.655 15.8817 14.655 16.3062Z" fill="#0085FF"/>
</svg>
