<svg width="20" height="20" viewBox="0 0 20 20" fill="none" xmlns="http://www.w3.org/2000/svg">
<path d="M12.31 10.77L10.77 12.31M0.75 6.915C0.952132 7.11833 1.19247 7.27969 1.45719 7.3898C1.72191 7.49991 2.00579 7.5566 2.2925 7.5566C2.57921 7.5566 2.86309 7.49991 3.12781 7.3898C3.39253 7.27969 3.63287 7.11833 3.835 6.915L8.46 11.54L6.915 13.085C6.50708 13.4937 6.27798 14.0476 6.27798 14.625C6.27798 15.2024 6.50708 15.7563 6.915 16.165L10.77 12.31L17.71 19.25H19.25V17.71L12.31 10.77L13.085 10L14.625 8.46L16.165 6.915C15.7563 6.50708 15.2024 6.27798 14.625 6.27798C14.0476 6.27798 13.4937 6.50708 13.085 6.915L11.54 8.46L6.915 3.835C7.11833 3.63287 7.27969 3.39253 7.3898 3.12781C7.49991 2.86309 7.5566 2.57921 7.5566 2.2925C7.5566 2.00579 7.49991 1.72191 7.3898 1.45719C7.27969 1.19247 7.11833 0.952132 6.915 0.75L5.375 2.29L2.29 5.375L0.75 6.915Z" stroke="black" stroke-linecap="round" stroke-linejoin="round"/>
</svg>
