<svg width="24" height="24" viewBox="0 0 24 24" fill="none" xmlns="http://www.w3.org/2000/svg">
<path d="M9.99989 11.294C9.99989 10.3058 10.794 9.5293 11.7646 9.5293C12.7352 9.5293 13.5293 10.3234 13.5293 11.294C13.5293 12.2646 12.7352 13.0587 11.7646 13.0587C10.794 13.0587 9.99989 12.2822 9.99989 11.294Z" fill="black"/>
<path d="M9.99989 18.8233C9.99989 17.8351 10.794 17.0586 11.7646 17.0586C12.7352 17.0586 13.5293 17.8527 13.5293 18.8233C13.5293 19.7939 12.7352 20.588 11.7646 20.588C10.794 20.588 9.99989 19.8115 9.99989 18.8233Z" fill="black"/>
<path d="M9.99989 3.76471C9.99989 2.77647 10.794 2 11.7646 2C12.7352 2 13.5293 2.79412 13.5293 3.76471C13.5293 4.73529 12.7352 5.52941 11.7646 5.52941C10.794 5.52941 9.99989 4.75294 9.99989 3.76471Z" fill="black"/>
</svg>
