<svg width="15" height="4" viewBox="0 0 15 4" fill="none" xmlns="http://www.w3.org/2000/svg">
<path d="M7.4705 3.50009C6.72933 3.50009 6.14697 2.9045 6.14697 2.17656C6.14697 1.44862 6.74256 0.853027 7.4705 0.853027C8.19844 0.853027 8.79403 1.44862 8.79403 2.17656C8.79403 2.9045 8.21168 3.50009 7.4705 3.50009Z" fill="#707070"/>
<path d="M13.1175 3.50009C12.3763 3.50009 11.7939 2.9045 11.7939 2.17656C11.7939 1.44862 12.3895 0.853027 13.1175 0.853027C13.8454 0.853027 14.441 1.44862 14.441 2.17656C14.441 2.9045 13.8587 3.50009 13.1175 3.50009Z" fill="#707070"/>
<path d="M1.82353 3.50009C1.08235 3.50009 0.5 2.9045 0.5 2.17656C0.5 1.44862 1.09559 0.853027 1.82353 0.853027C2.55147 0.853027 3.14706 1.44862 3.14706 2.17656C3.14706 2.9045 2.56471 3.50009 1.82353 3.50009Z" fill="#707070"/>
</svg>
