<svg width="24" height="24" viewBox="0 0 24 24" fill="none" xmlns="http://www.w3.org/2000/svg">
<path d="M4.16989 15.2998L8.69989 19.8298C10.5599 21.6898 13.5799 21.6898 15.4499 19.8298L19.8399 15.4398C21.6999 13.5798 21.6999 10.5598 19.8399 8.6898L15.2999 4.1698C14.3499 3.2198 13.0399 2.7098 11.6999 2.7798L6.69989 3.0198C4.69989 3.1098 3.10989 4.6998 3.00989 6.6898L2.76989 11.6898C2.70989 13.0398 3.21989 14.3498 4.16989 15.2998Z" stroke="#292D32" stroke-width="1.5" stroke-linecap="round" stroke-linejoin="round"/>
<path d="M9.5 12C10.8807 12 12 10.8807 12 9.5C12 8.11929 10.8807 7 9.5 7C8.11929 7 7 8.11929 7 9.5C7 10.8807 8.11929 12 9.5 12Z" stroke="#292D32" stroke-width="1.5" stroke-linecap="round"/>
</svg>
