<svg width="24" height="24" viewBox="0 0 24 24" fill="none" xmlns="http://www.w3.org/2000/svg">
<path d="M12.88 20.8596H6.81C3.26 20.8596 2 18.3696 2 16.0496V7.94965C2 4.48965 3.35 3.13965 6.81 3.13965H12.88C16.34 3.13965 17.69 4.48965 17.69 7.94965V16.0496C17.69 19.5096 16.34 20.8596 12.88 20.8596ZM6.81 4.65965C4.2 4.65965 3.52 5.33965 3.52 7.94965V16.0496C3.52 17.2796 3.95 19.3396 6.81 19.3396H12.88C15.49 19.3396 16.17 18.6596 16.17 16.0496V7.94965C16.17 5.33965 15.49 4.65965 12.88 4.65965H6.81Z" fill="black"/>
<path d="M20.7799 18.1105C20.3499 18.1105 19.7999 17.9705 19.1699 17.5305L16.4999 15.6605C16.2999 15.5205 16.1799 15.2905 16.1799 15.0405V8.96048C16.1799 8.71048 16.2999 8.48048 16.4999 8.34048L19.1699 6.47048C20.3599 5.64048 21.2299 5.88048 21.6399 6.09048C22.0499 6.31048 22.7499 6.88048 22.7499 8.33048V15.6605C22.7499 17.1105 22.0499 17.6905 21.6399 17.9005C21.4499 18.0105 21.1499 18.1105 20.7799 18.1105ZM17.6899 14.6405L20.0399 16.2805C20.4899 16.5905 20.8099 16.6205 20.9399 16.5505C21.0799 16.4805 21.2299 16.2005 21.2299 15.6605V8.34048C21.2299 7.79048 21.0699 7.52048 20.9399 7.45048C20.8099 7.38048 20.4899 7.41048 20.0399 7.72048L17.6899 9.36048V14.6405Z" fill="black"/>
<path d="M11.5 11.75C10.26 11.75 9.25 10.74 9.25 9.5C9.25 8.26 10.26 7.25 11.5 7.25C12.74 7.25 13.75 8.26 13.75 9.5C13.75 10.74 12.74 11.75 11.5 11.75ZM11.5 8.75C11.09 8.75 10.75 9.09 10.75 9.5C10.75 9.91 11.09 10.25 11.5 10.25C11.91 10.25 12.25 9.91 12.25 9.5C12.25 9.09 11.91 8.75 11.5 8.75Z" fill="black"/>
</svg>
