<svg width="184" height="184" viewBox="0 0 184 184" fill="none" xmlns="http://www.w3.org/2000/svg">
<path d="M133.783 174.417C125.12 174.417 115.997 172.347 106.567 168.36C97.3667 164.45 88.09 159.083 79.0433 152.567C69.9967 145.973 61.3333 138.537 53.2067 130.487C45.08 122.283 37.72 113.62 31.2033 104.727C24.61 95.5267 19.32 86.4033 15.5633 77.4333C11.5767 68.0033 9.58333 58.8033 9.58333 50.14C9.58333 44.16 10.6567 38.4867 12.7267 33.1967C14.95 27.6767 18.3233 22.6933 23 18.3233C28.9033 12.5733 35.65 9.58333 42.8567 9.58333C45.8467 9.58333 48.9133 10.2733 51.52 11.5C54.51 12.88 57.04 14.95 58.88 17.71L76.6667 42.78C78.2767 45.0033 79.5033 47.15 80.3467 49.2967C81.3433 51.5967 81.88 53.8967 81.88 56.12C81.88 59.0333 81.0367 61.87 79.4267 64.5533C78.2767 66.6233 76.5133 68.8467 74.29 71.07L69.0767 76.5133C69.1533 76.7433 69.23 76.8967 69.3067 77.05C70.2267 78.66 72.0667 81.42 75.5933 85.56C79.2733 89.8533 82.8767 93.6867 86.4033 97.3667C91.0033 101.89 94.6833 105.34 98.21 108.253C102.58 111.933 105.417 113.773 107.103 114.617L106.95 115L112.547 109.48C114.923 107.103 117.223 105.34 119.447 104.19C123.663 101.583 129.03 101.123 134.397 103.347C136.39 104.19 138.537 105.34 140.837 106.95L166.29 125.043C169.05 126.96 171.197 129.413 172.423 132.327C173.573 135.24 174.11 137.923 174.11 140.607C174.11 144.287 173.267 147.967 171.657 151.417C170.047 154.867 168.053 157.857 165.523 160.617C161.153 165.447 156.4 168.897 150.88 171.12C145.59 173.267 139.84 174.417 133.783 174.417ZM42.8567 21.0833C38.64 21.0833 34.73 22.9233 30.9733 26.6033C27.5233 29.9 24.9933 33.5033 23.46 37.4133C21.85 41.4 21.0833 45.6167 21.0833 50.14C21.0833 57.27 22.77 65.0133 26.1433 72.9867C29.5933 81.1133 34.4233 89.5467 40.5567 97.98C46.69 106.413 53.6667 114.617 61.3333 122.36C69 129.95 77.28 137.003 85.79 143.213C94.07 149.27 102.58 154.177 111.013 157.703C124.123 163.3 136.39 164.603 146.51 160.387C150.42 158.777 153.87 156.323 157.013 152.797C158.777 150.88 160.157 148.81 161.307 146.357C162.227 144.44 162.687 142.447 162.687 140.453C162.687 139.227 162.457 138 161.843 136.62C161.69 136.237 161.153 135.317 159.697 134.32L134.243 116.227C132.71 115.153 131.33 114.387 130.027 113.85C128.033 113.083 126.73 113.007 125.043 114.08C123.51 114.847 122.13 115.997 120.597 117.53L114.77 123.28C111.78 126.193 107.18 126.883 103.653 125.58L101.583 124.66C98.44 122.973 94.76 120.367 90.6967 116.917C86.94 113.773 83.1067 110.17 78.2 105.34C74.3667 101.43 70.6867 97.3667 66.7767 92.92C63.1733 88.7033 60.5667 85.1 58.9567 82.11L57.96 79.81C57.5 78.1233 57.3467 77.1267 57.3467 76.0533C57.3467 73.2933 58.3433 70.84 60.26 68.9233L66.01 62.9433C67.5433 61.41 68.6933 59.9533 69.46 58.65C70.0733 57.6533 70.3033 56.81 70.3033 56.0433C70.3033 55.43 70.0733 54.51 69.69 53.59C69.23 52.2867 68.3867 50.9833 67.3133 49.45L49.5267 24.3033C48.76 23.23 47.84 22.4633 46.69 21.9267C45.4633 21.39 44.16 21.0833 42.8567 21.0833ZM106.95 115.077L105.723 120.29L107.793 114.923C107.487 114.847 107.18 114.923 106.95 115.077Z" fill="white"/>
<path d="M124.43 65.32C122.973 65.32 121.517 64.7833 120.367 63.6333C118.143 61.41 118.143 57.73 120.367 55.5067L147.507 28.3667C149.73 26.1433 153.41 26.1433 155.633 28.3667C157.857 30.59 157.857 34.27 155.633 36.4933L128.493 63.6333C127.42 64.7067 125.887 65.32 124.43 65.32Z" fill="white"/>
<path d="M151.57 65.32C150.113 65.32 148.657 64.7833 147.507 63.6333L120.367 36.4933C118.143 34.27 118.143 30.59 120.367 28.3667C122.59 26.1433 126.27 26.1433 128.493 28.3667L155.633 55.5067C157.857 57.73 157.857 61.41 155.633 63.6333C154.483 64.7067 153.027 65.32 151.57 65.32Z" fill="white"/>
</svg>
