<svg width="188" height="188" viewBox="0 0 188 188" fill="none" xmlns="http://www.w3.org/2000/svg">
<path d="M98.3083 161.288C92.12 161.288 85.305 159.095 78.49 154.787L55.6166 140.452C54.05 139.512 52.2483 138.963 50.4466 138.963H39.1666C20.21 138.963 9.79163 128.545 9.79163 109.588V78.255C9.79163 59.2983 20.21 48.88 39.1666 48.88H50.3683C52.17 48.88 53.9716 48.3317 55.5383 47.3917L78.4116 33.0567C89.8483 25.9283 100.972 24.5967 109.745 29.4533C118.518 34.31 123.297 44.415 123.297 57.9667V129.798C123.297 143.272 118.44 153.455 109.745 158.312C106.298 160.348 102.382 161.288 98.3083 161.288ZM39.1666 60.7083C26.79 60.7083 21.5416 65.9567 21.5416 78.3333V109.667C21.5416 122.043 26.79 127.292 39.1666 127.292H50.3683C54.4416 127.292 58.3583 128.388 61.805 130.582L84.6783 144.917C92.1983 149.617 99.3266 150.87 104.105 148.207C108.883 145.543 111.625 138.885 111.625 130.033V58.045C111.625 49.115 108.883 42.4567 104.105 39.8717C99.3266 37.2083 92.1983 38.3833 84.6783 43.1617L61.7266 57.4183C58.3583 59.6117 54.3633 60.7083 50.3683 60.7083H39.1666Z" fill="black"/>
<path d="M141 131.208C139.747 131.208 138.572 130.817 137.475 130.033C134.89 128.075 134.342 124.393 136.3 121.808C148.598 105.437 148.598 82.5633 136.3 66.1917C134.342 63.6067 134.89 59.925 137.475 57.9667C140.06 56.0083 143.742 56.5567 145.7 59.1417C161.053 79.665 161.053 108.335 145.7 128.858C144.525 130.425 142.802 131.208 141 131.208Z" fill="black"/>
<path d="M155.335 150.792C154.082 150.792 152.907 150.4 151.81 149.617C149.225 147.658 148.677 143.977 150.635 141.392C171.55 113.505 171.55 74.495 150.635 46.6083C148.677 44.0233 149.225 40.3417 151.81 38.3833C154.395 36.425 158.077 36.9733 160.035 39.5583C184.083 71.5967 184.083 116.403 160.035 148.442C158.938 150.008 157.137 150.792 155.335 150.792Z" fill="black"/>
</svg>
