<svg width="189" height="189" viewBox="0 0 189 189" fill="none" xmlns="http://www.w3.org/2000/svg">
<path d="M63.4 92.8375C60.1815 92.8375 57.5125 90.1685 57.5125 86.95V47.7C57.5125 27.133 74.233 10.4125 94.8 10.4125C115.367 10.4125 132.087 27.133 132.087 47.7V50.055C132.087 53.2735 129.418 55.9425 126.2 55.9425C122.981 55.9425 120.312 53.2735 120.312 50.055V47.7C120.312 33.6485 108.851 22.1875 94.8 22.1875C80.7485 22.1875 69.2875 33.6485 69.2875 47.7V86.95C69.2875 90.1685 66.6185 92.8375 63.4 92.8375Z" fill="black"/>
<path d="M94.8 128.163C84.281 128.163 74.233 123.688 67.168 115.917C64.97 113.483 65.2055 109.794 67.5605 107.596C69.994 105.398 73.6835 105.633 75.8815 107.988C80.67 113.326 87.578 116.388 94.8 116.388C108.851 116.388 120.312 104.927 120.312 90.875V86.95C120.312 83.7315 122.981 81.0625 126.2 81.0625C129.418 81.0625 132.087 83.7315 132.087 86.95V90.875C132.087 111.442 115.367 128.163 94.8 128.163Z" fill="black"/>
<path d="M94.8 155.638C78.0795 155.638 62.0655 149.358 49.8195 137.975C47.4645 135.777 47.3075 132.009 49.5055 129.654C51.782 127.221 55.55 127.142 57.905 129.34C67.953 138.682 81.0625 143.863 94.8 143.863C124.63 143.863 148.965 119.528 148.965 89.6975V76.3525C148.965 73.134 151.634 70.465 154.852 70.465C158.071 70.465 160.74 73.134 160.74 76.3525V89.6975C160.74 126.043 131.145 155.638 94.8 155.638Z" fill="black"/>
<path d="M39.4575 118.978C37.181 118.978 34.983 117.643 34.041 115.367C30.587 107.203 28.86 98.6465 28.86 89.6975V76.3525C28.86 73.134 31.529 70.465 34.7475 70.465C37.966 70.465 40.635 73.134 40.635 76.3525V89.6975C40.635 96.998 42.048 104.063 44.874 110.735C46.13 113.718 44.717 117.173 41.734 118.429C41.0275 118.821 40.2425 118.978 39.4575 118.978Z" fill="black"/>
<path d="M31.372 155.559C29.8805 155.559 28.389 155.01 27.2115 153.832C24.935 151.556 24.935 147.788 27.2115 145.511L153.989 18.7335C156.266 16.457 160.033 16.457 162.31 18.7335C164.586 21.01 164.586 24.778 162.31 27.0545L35.611 153.832C34.4335 155.01 32.942 155.559 31.372 155.559Z" fill="black"/>
<path d="M86.95 53.5875C83.7315 53.5875 81.0625 50.9185 81.0625 47.7V24.15C81.0625 20.9315 83.7315 18.2625 86.95 18.2625C90.1685 18.2625 92.8375 20.9315 92.8375 24.15V47.7C92.8375 50.9185 90.1685 53.5875 86.95 53.5875Z" fill="black"/>
<path d="M94.8 179.188C91.5815 179.188 88.9125 176.519 88.9125 173.3V149.75C88.9125 146.532 91.5815 143.863 94.8 143.863C98.0185 143.863 100.688 146.532 100.688 149.75V173.3C100.688 176.519 98.0185 179.188 94.8 179.188Z" fill="black"/>
</svg>
