<svg width="24" height="24" viewBox="0 0 24 24" fill="none" xmlns="http://www.w3.org/2000/svg">
<path fill-rule="evenodd" clip-rule="evenodd" d="M5.30972 6.44C5.30972 4.40311 6.95503 2.75 8.99972 2.75C11.035 2.75 12.6889 4.40339 12.6897 6.43847C12.6806 8.42308 11.1306 10.031 9.17672 10.1188C9.05851 10.1102 8.93321 10.1106 8.8146 10.1189C6.8588 10.032 5.30972 8.42302 5.30972 6.44ZM8.99972 1.25C6.12441 1.25 3.80972 3.57689 3.80972 6.44C3.80972 9.24337 6.01932 11.526 8.80452 11.6196C8.83558 11.6206 8.86667 11.6197 8.89762 11.6169C8.96481 11.6108 9.03687 11.6115 9.08509 11.6163C9.11826 11.6196 9.15161 11.6207 9.18492 11.6196C11.9707 11.5259 14.178 9.24352 14.1897 6.44313L14.1897 6.44C14.1897 3.57579 11.8639 1.25 8.99972 1.25ZM16.4103 3.24982C15.9961 3.24982 15.6603 3.58561 15.6603 3.99982C15.6603 4.41403 15.9961 4.74982 16.4103 4.74982C17.9347 4.74982 19.1603 5.98264 19.1603 7.49982C19.1603 8.96812 18.007 10.1688 16.5603 10.2481C16.4386 10.2383 16.3152 10.2413 16.1974 10.2544C15.7858 10.3001 15.4891 10.671 15.5349 11.0826C15.5806 11.4943 15.9514 11.791 16.3631 11.7452C16.4017 11.7409 16.4323 11.7422 16.4472 11.744C16.4874 11.749 16.5279 11.7508 16.5683 11.7493C18.8392 11.6643 20.6603 9.79527 20.6603 7.49982C20.6603 5.157 18.7659 3.24982 16.4103 3.24982ZM9.17247 12.4373C11.1007 12.4373 13.067 12.9212 14.5865 13.9361C15.9524 14.8453 16.735 16.1196 16.735 17.4911C16.735 18.8624 15.9525 20.1391 14.5872 21.0531L14.587 21.0532C13.0628 22.073 11.0941 22.5598 9.16497 22.5598C7.23626 22.5598 5.26788 22.0732 3.74379 21.0538C2.37768 20.1446 1.59497 18.8701 1.59497 17.4986C1.59497 16.1273 2.37741 14.8506 3.74276 13.9366L3.74551 13.9347L3.74551 13.9347C5.27395 12.9213 7.24403 12.4373 9.17247 12.4373ZM4.5758 15.184C3.52216 15.8898 3.09497 16.7427 3.09497 17.4986C3.09497 18.2543 3.52198 19.1046 4.5754 19.8054L4.57704 19.8065C5.80283 20.6266 7.46405 21.0598 9.16497 21.0598C10.8658 21.0598 12.527 20.6267 13.7528 19.8066C14.8074 19.1006 15.235 18.2473 15.235 17.4911C15.235 16.7354 14.808 15.8851 13.7545 15.1843L13.7534 15.1835C12.533 14.3684 10.8743 13.9373 9.17247 13.9373C7.47154 13.9373 5.80724 14.368 4.5758 15.184ZM18.5348 13.2682C18.1308 13.1772 17.7294 13.4309 17.6383 13.835C17.5473 14.2391 17.801 14.6405 18.2051 14.7315C18.8346 14.8734 19.3989 15.1155 19.8448 15.456L19.8448 15.456L19.85 15.4599C20.4673 15.9229 20.72 16.4868 20.72 16.9949C20.72 17.5029 20.4673 18.0669 19.85 18.5299L19.8499 18.5298L19.8432 18.535C19.3853 18.8866 18.8133 19.1352 18.187 19.2656C17.7815 19.3501 17.5212 19.7473 17.6057 20.1528C17.6902 20.5584 18.0874 20.8186 18.4929 20.7341C19.3053 20.5649 20.0919 20.2343 20.7534 19.7273C21.6939 19.0205 22.22 18.0356 22.22 16.9949C22.22 15.9539 21.6936 14.9687 20.7526 14.2618C20.099 13.7635 19.3243 13.4461 18.5348 13.2682Z" fill="black"/>
</svg>
