<svg width="24" height="24" viewBox="0 0 24 24" fill="none" xmlns="http://www.w3.org/2000/svg">
<path d="M10.1991 3.34523L10.1996 3.34477C11.191 2.54855 12.8013 2.5512 13.812 3.35611C13.8122 3.35626 13.8124 3.35641 13.8126 3.35656L20.3585 8.59329C20.6945 8.86808 20.9983 9.31037 21.1969 9.83023C21.3953 10.3495 21.4644 10.8823 21.3994 11.3116L20.1411 18.8417C20.1409 18.8424 20.1408 18.8432 20.1407 18.8439C19.9112 20.1582 18.6198 21.25 17.3 21.25H6.69999C5.35827 21.25 4.09878 20.1864 3.86945 18.8547C3.86936 18.8542 3.86927 18.8537 3.86919 18.8532L2.60974 11.3164L2.60945 11.3147C2.53623 10.8827 2.60057 10.3494 2.79827 9.831C2.99594 9.31265 3.30328 8.87113 3.64776 8.59628L3.64906 8.59523L10.1991 3.34523Z" stroke="black" stroke-width="1.5"/>
<mask id="path-2-inside-1_3147_4786" fill="white">
<path d="M12 18.75C12.41 18.75 12.75 18.41 12.75 18V15C12.75 14.59 12.41 14.25 12 14.25C11.59 14.25 11.25 14.59 11.25 15V18C11.25 18.41 11.59 18.75 12 18.75Z"/>
</mask>
<path d="M11.25 18C11.25 17.5816 11.5816 17.25 12 17.25V20.25C13.2384 20.25 14.25 19.2384 14.25 18H11.25ZM12 17.25C12.4184 17.25 12.75 17.5816 12.75 18H9.75C9.75 19.2384 10.7616 20.25 12 20.25V17.25ZM12.75 18V15H9.75V18H12.75ZM12.75 15C12.75 15.4184 12.4184 15.75 12 15.75V12.75C10.7616 12.75 9.75 13.7616 9.75 15H12.75ZM12 15.75C11.5816 15.75 11.25 15.4184 11.25 15H14.25C14.25 13.7616 13.2384 12.75 12 12.75V15.75ZM11.25 15V18H14.25V15H11.25Z" fill="black" mask="url(#path-2-inside-1_3147_4786)"/>
</svg>
