<svg width="24" height="24" viewBox="0 0 24 24" fill="none" xmlns="http://www.w3.org/2000/svg">
<path d="M7.26904 6.225C7.26904 3.75721 9.27626 1.75 11.744 1.75C14.2113 1.75 16.2183 3.75643 16.219 6.22355C16.2089 8.6449 14.3222 10.5978 11.9174 10.689H11.9173H11.9173H11.9173H11.9172H11.9172H11.9172H11.9171H11.9171H11.9171H11.917H11.917H11.9169H11.9169H11.9169H11.9168H11.9168H11.9168H11.9167H11.9167H11.9167H11.9166H11.9166H11.9165H11.9165H11.9165H11.9164H11.9164H11.9164H11.9163H11.9163H11.9162H11.9162H11.9162H11.9161H11.9161H11.916H11.916H11.916H11.9159H11.9159H11.9159H11.9158H11.9158H11.9157H11.9157H11.9157H11.9156H11.9156H11.9155H11.9155H11.9154H11.9154H11.9154H11.9153H11.9153H11.9152H11.9152H11.9152H11.9151H11.9151H11.915H11.915H11.915H11.9149H11.9149H11.9148H11.9148H11.9147H11.9147H11.9147H11.9146H11.9146H11.9145H11.9145H11.9144H11.9144H11.9143H11.9143H11.9143H11.9142H11.9142H11.9141H11.9141H11.914H11.914H11.9139H11.9139H11.9138H11.9138H11.9138H11.9137H11.9137H11.9136H11.9136H11.9135H11.9135H11.9134H11.9134H11.9133H11.9133H11.9132H11.9132H11.9131H11.9131H11.913H11.913H11.9129H11.9129H11.9128H11.9128H11.9127H11.9127H11.9126H11.9126H11.9125H11.9125H11.9124H11.9124H11.9123H11.9123H11.9122H11.9122H11.9121H11.9121H11.912H11.912H11.9119H11.9119H11.9118H11.9118H11.9117H11.9116H11.9116H11.9115H11.9115H11.9114H11.9114H11.9113H11.9113H11.9112H11.9111H11.9111H11.911H11.911H11.9109H11.9109H11.9108H11.9107H11.9107H11.9106H11.9106H11.9105H11.9105H11.9104H11.9103H11.9103H11.9102H11.9102H11.9101H11.91H11.91H11.9099H11.9099H11.9098H11.9097H11.9097H11.9096H11.9095H11.9095H11.9094H11.9094H11.9093H11.9092H11.9092H11.9091H11.909H11.9089H11.9088H11.9087H11.9085H11.9084H11.9083H11.9081H11.908H11.9079H11.9078H11.9076H11.9075H11.9074H11.9073H11.9071H11.907H11.9069H11.9068H11.9066H11.9065H11.9064H11.9063H11.9061H11.906H11.9059H11.9058H11.9056H11.9055H11.9054H11.9053H11.9052H11.905H11.9049H11.9048H11.9047H11.9046H11.9044H11.9043H11.9042H11.9041H11.904H11.9038H11.9037H11.9036H11.9035H11.9034H11.9032H11.9031H11.903H11.9029H11.9028H11.9027H11.9025H11.9024H11.9023H11.9022C11.795 10.6776 11.6869 10.6789 11.5881 10.6875C9.12935 10.5779 7.26904 8.62639 7.26904 6.225Z" stroke="black" stroke-width="1.5"/>
<path d="M6.57408 20.8264L6.57202 20.825C5.3376 20.0021 4.75 18.9587 4.75 17.9181C4.75 16.8769 5.33817 15.8228 6.58259 14.9894C7.98043 14.0647 9.85173 13.5806 11.7577 13.5806C13.6647 13.5806 15.5301 14.0652 16.916 14.9891C18.145 15.8084 18.7284 16.8514 18.738 17.8991C18.7369 18.9504 18.1484 19.9934 16.9132 20.8269C15.5219 21.7607 13.6521 22.2501 11.744 22.2501C9.83558 22.2501 7.96541 21.7606 6.57408 20.8264Z" stroke="black" stroke-width="1.5"/>
</svg>
